<svg xmlns="http://www.w3.org/2000/svg" xmlns:xlink="http://www.w3.org/1999/xlink" viewBox="0 0 35.46 35.66"><defs><clipPath id="a" transform="translate(0 0)"><rect width="35.46" height="35.66" style="fill:none"/></clipPath></defs><title>service11</title><g style="clip-path:url(#a)"><polygon points="3.26 0.72 3.44 2.96 5.71 2.5 3.64 3.36 4.77 5.37 3.31 3.67 1.75 5.37 2.92 3.45 0.82 2.5 3 3.01 3.26 0.72" style="fill:none;stroke:#d4d4d4;stroke-linecap:round;stroke-linejoin:round;stroke-width:1.440000057220459px"/><polygon points="10.49 0.72 10.68 2.96 12.94 2.5 10.87 3.36 12.01 5.37 10.54 3.67 8.98 5.37 10.15 3.45 8.05 2.5 10.23 3.01 10.49 0.72" style="fill:none;stroke:#d4d4d4;stroke-linecap:round;stroke-linejoin:round;stroke-width:1.440000057220459px"/><polygon points="17.73 0.72 17.91 2.96 20.17 2.5 18.1 3.36 19.24 5.37 17.78 3.67 16.22 5.37 17.38 3.45 15.28 2.5 17.46 3.01 17.73 0.72" style="fill:none;stroke:#d4d4d4;stroke-linecap:round;stroke-linejoin:round;stroke-width:1.440000057220459px"/><polygon points="24.96 0.72 25.14 2.96 27.41 2.5 25.34 3.36 26.47 5.37 25.01 3.67 23.45 5.37 24.61 3.45 22.52 2.5 24.7 3.01 24.96 0.72" style="fill:none;stroke:#d4d4d4;stroke-linecap:round;stroke-linejoin:round;stroke-width:1.440000057220459px"/><polygon points="32.19 0.72 32.38 2.96 34.64 2.5 32.57 3.36 33.7 5.37 32.24 3.67 30.68 5.37 31.85 3.45 29.75 2.5 31.93 3.01 32.19 0.72" style="fill:none;stroke:#d4d4d4;stroke-linecap:round;stroke-linejoin:round;stroke-width:1.440000057220459px"/><path d="M8,34.94V9.71A1.62,1.62,0,0,1,9.54,8.27H25.92A1.63,1.63,0,0,1,27.49,9.7V34.94" transform="translate(0 0)" style="fill:none;stroke:#d4d4d4;stroke-linecap:round;stroke-linejoin:round;stroke-width:1.440000057220459px"/><path d="M7,12.29H3.62A1.71,1.71,0,0,0,2,14.08l0.9,20.83" transform="translate(0 0)" style="fill:none;stroke:#d4d4d4;stroke-linecap:round;stroke-linejoin:round;stroke-width:1.440000057220459px"/><path d="M28.45,12.29h3.38a1.71,1.71,0,0,1,1.59,1.79l-0.9,20.83" transform="translate(0 0)" style="fill:none;stroke:#d4d4d4;stroke-linecap:round;stroke-linejoin:round;stroke-width:1.440000057220459px"/><line x1="10.95" y1="12.3" x2="24.5" y2="12.3" style="fill:none;stroke:#d4d4d4;stroke-linecap:round;stroke-linejoin:round;stroke-width:1.440000057220459px"/><line x1="10.95" y1="16.02" x2="24.5" y2="16.02" style="fill:none;stroke:#d4d4d4;stroke-linecap:round;stroke-linejoin:round;stroke-width:1.440000057220459px"/><line x1="10.95" y1="19.75" x2="24.5" y2="19.75" style="fill:none;stroke:#d4d4d4;stroke-linecap:round;stroke-linejoin:round;stroke-width:1.440000057220459px"/><line x1="10.95" y1="23.48" x2="24.5" y2="23.48" style="fill:none;stroke:#d4d4d4;stroke-linecap:round;stroke-linejoin:round;stroke-width:1.440000057220459px"/><line x1="10.95" y1="27.2" x2="24.5" y2="27.2" style="fill:none;stroke:#d4d4d4;stroke-linecap:round;stroke-linejoin:round;stroke-width:1.440000057220459px"/><line x1="10.95" y1="30.93" x2="24.5" y2="30.93" style="fill:none;stroke:#d4d4d4;stroke-linecap:round;stroke-linejoin:round;stroke-width:1.440000057220459px"/><line x1="0.72" y1="34.94" x2="34.74" y2="34.94" style="fill:none;stroke:#d4d4d4;stroke-linecap:round;stroke-linejoin:round;stroke-width:1.440000057220459px"/></g></svg>