<svg xmlns="http://www.w3.org/2000/svg" xmlns:xlink="http://www.w3.org/1999/xlink" width="63" height="60" viewBox="0 0 63 60">
  <defs>
    <style>
      .cls-1 {
      fill: #d4d4d4;
      }
    </style>
  </defs>
  <path id="Shape_10_copy" data-name="Shape 10 copy" class="cls-1" d="M27.038,27.149a2.486,2.486,0,1,1,2.48-2.486A2.486,2.486,0,0,1,27.038,27.149Zm0.029-2.486-0.029.029A0.029,0.029,0,0,0,27.067,24.663ZM35.9,27.149a2.486,2.486,0,1,1,2.48-2.486A2.486,2.486,0,0,1,35.9,27.149Zm0.028-2.486-0.028.029A0.028,0.028,0,0,0,35.93,24.663ZM31.47,50.284H31.463a1.256,1.256,0,0,1-1.241-1.137,6.312,6.312,0,0,1-.008-0.956,4.024,4.024,0,0,0-1.806-3.145c-0.372-.231-0.814-0.485-1.294-0.76-2.832-1.626-6.712-3.854-6.77-7.113A6.658,6.658,0,0,1,22.112,32.2c1.756-1.8,4.609-2.612,9.251-2.634h0.2c4.655,0.023,7.508.835,9.263,2.635A6.659,6.659,0,0,1,42.6,37.173c-0.057,3.259-3.937,5.486-6.77,7.113-0.48.275-.922,0.53-1.294,0.762a4.021,4.021,0,0,0-1.806,3.157,6.209,6.209,0,0,1-.009.959A1.254,1.254,0,0,1,31.47,50.284Zm-0.107-18.2C27.51,32.1,25.136,32.7,23.9,33.962a4.2,4.2,0,0,0-1.053,3.167c0.033,1.831,3.462,3.8,5.51,4.975,0.508,0.291.976,0.561,1.371,0.807a6.139,6.139,0,0,1,1.736,1.608,6.157,6.157,0,0,1,1.739-1.608c0.4-.246.864-0.516,1.371-0.807,2.049-1.175,5.477-3.144,5.509-4.975a4.2,4.2,0,0,0-1.053-3.167C37.8,32.7,35.43,32.1,31.566,32.085h-0.2Zm9.914,26.4c-4.177,0-7.9-2.775-9.807-6.917-1.907,4.142-5.631,6.917-9.809,6.917C14.6,58.485,10.383,52.321,10.383,42a24.811,24.811,0,0,1,.15-2.655c0.685-6.3,4.865-21,7.907-26.772-0.793-1.671-1.509-2.344-1.95-2.434a1.152,1.152,0,0,0-.929.456c-2.05,1.964-2.342,4.541-2.68,7.524-0.39,3.445-.832,7.349-4.287,10.66-0.975.934-2.147,1.848-3.481,1.579-1.643-.335-2.4-2.092-3.764-5.278L1.27,24.9c-3.244-7.555.16-16.393,5.2-21.219A11.071,11.071,0,0,1,15.934.595,11.891,11.891,0,0,1,24,6.264C25.925,5.207,28.195,5,31.645,5c3.13,0,5.462.208,7.427,1.163A12.248,12.248,0,0,1,46.882.653,10.763,10.763,0,0,1,55.7,2.891c5.283,4.269,9.135,12.723,6.276,20.62l-0.236.656c-1.122,3.117-1.8,5-3.435,5.458-1.3.362-2.5-.429-3.406-1.16-3.678-2.973-4.044-6.7-4.367-9.989-0.27-2.755-.5-5.134-2.579-6.811a1.939,1.939,0,0,0-1.615-.486,2.6,2.6,0,0,0-1.5,1.012c3.433,6.26,7.133,21.035,7.638,27.225q0.087,1.067.086,2.06C52.555,52.126,48.339,58.485,41.277,58.485ZM31.47,45.671a1.255,1.255,0,0,1,1.246,1.114c0.6,5.237,4.281,9.186,8.561,9.186,7.915,0,8.77-10.135,8.77-14.493q0-.893-0.077-1.856c-0.556-6.811-4.624-21.832-7.684-26.821a1.261,1.261,0,0,1-.019-1.286,5.419,5.419,0,0,1,3.607-2.806,4.44,4.44,0,0,1,3.65,1c2.893,2.338,3.2,5.481,3.5,8.522,0.3,3.069.587,5.967,3.447,8.278a2.519,2.519,0,0,0,1.172.692h0c0.412-.214,1.115-2.165,1.735-3.886l0.238-.66c2.457-6.789-.9-14.1-5.492-17.806A8.243,8.243,0,0,0,47.36,3.121,10.133,10.133,0,0,0,40.6,8.475a1.253,1.253,0,0,1-1.81.42c-1.47-1.023-3.339-1.385-7.143-1.385-3.978,0-5.621.313-7.034,1.339l-0.234.179a1.24,1.24,0,0,1-1.041.254,1.257,1.257,0,0,1-.856-0.646c-1.637-3.12-4.1-5.094-6.95-5.56A8.559,8.559,0,0,0,8.2,5.5C3.788,9.721.782,17.4,3.573,23.9l0.079,0.184c0.722,1.683,1.54,3.589,1.984,3.815a4.432,4.432,0,0,0,1.225-.939c2.8-2.683,3.154-5.812,3.529-9.126,0.36-3.178.731-6.465,3.438-9.059a3.448,3.448,0,0,1,3.162-1.1c1.52,0.31,2.852,1.775,3.959,4.355a1.477,1.477,0,0,1-.023,1.228c-2.876,4.981-7.23,20.193-7.9,26.359A22.119,22.119,0,0,0,12.891,42c0,4.2.855,13.971,8.771,13.971,4.281,0,7.962-3.949,8.563-9.186A1.255,1.255,0,0,1,31.47,45.671Zm0,14.275c-3.922,0-6.77-1.649-6.77-3.922a1.254,1.254,0,1,1,2.508,0c0,0.35,1.511,1.407,4.262,1.407s4.263-1.057,4.263-1.407a1.254,1.254,0,1,1,2.508,0C38.241,58.3,35.393,59.946,31.47,59.946Z"/>
</svg>
