<svg xmlns="http://www.w3.org/2000/svg" xmlns:xlink="http://www.w3.org/1999/xlink" width="62" height="64" viewBox="0 0 62 64">
  <defs>
    <style>
      .cls-1 {
      fill: #d4d4d4;
      }
    </style>
  </defs>
  <path id="Shape_8_copy" data-name="Shape 8 copy" class="cls-1" d="M50.05,41.251H12.317C8.671,41.124,1.039,39.306.453,34.493a1.28,1.28,0,0,1,.3-1,1.239,1.239,0,0,1,.936-0.43H60.675a1.242,1.242,0,0,1,.936.429,1.282,1.282,0,0,1,.3,1c-0.585,4.814-8.217,6.632-11.821,6.758H50.05ZM3.629,35.606c1.716,1.925,6.119,3.015,8.731,3.106H50.028c2.615-.1,7-1.185,8.71-3.105H3.629Zm52.9-.749H56.5a1.213,1.213,0,0,1-1.215-1.246l0.012-.777c0-7.113-2.586-13.075-7.479-17.24A25.578,25.578,0,0,0,31.178,9.819c-11.609,0-24.1,7.2-24.1,23.015L7.083,33.5l-1.245.149-1.248.032,1.248-.032-1.251-.075-0.01-.735c0-7.89,2.894-14.525,8.369-19.188A28.026,28.026,0,0,1,31.178,7.281c18.284,0,26.612,13.246,26.612,25.554l-0.01.735A1.311,1.311,0,0,1,56.528,34.857ZM29.648,63.994a1.252,1.252,0,0,1-1.2-.917,1.271,1.271,0,0,1,.852-1.571l17.923-5.273a1.245,1.245,0,0,1,1.546.866,1.272,1.272,0,0,1-.852,1.572L30,63.943A1.217,1.217,0,0,1,29.648,63.994Zm12.517-5.525a1.206,1.206,0,0,1-.4-0.068,1.272,1.272,0,0,1-.785-1.607c0.171-.519.3-1.015,0.429-1.531a23.069,23.069,0,0,1,3.183-7.38,25.192,25.192,0,0,1,2.019-2.593,18.223,18.223,0,0,0,2.166-2.874,1.264,1.264,0,0,1,.151-0.267c0.08-.11.142-0.2,0.188-0.282-1.039-.116-3.527.6-4.351,1.776-0.248.355-.452,0.692-0.644,1.006a6.34,6.34,0,0,1-2.447,2.612c-3.952,2.129-5.571.078-7.447-2.295a34.511,34.511,0,0,0-2.355-2.756,3.019,3.019,0,0,0-2.579-.831,2.288,2.288,0,0,0-1.128.422,1.36,1.36,0,0,1-.014,1.763,1.178,1.178,0,0,1-1.715.084,2.454,2.454,0,0,1-.767-2.426,3.4,3.4,0,0,1,2.58-2.215,5.521,5.521,0,0,1,5.4,1.423,37.534,37.534,0,0,1,2.52,2.946c1.869,2.364,2.206,2.789,4.332,1.642A3.946,3.946,0,0,0,42,43.309c0.218-.355.45-0.735,0.731-1.136,1.306-1.871,4.6-3.028,6.668-2.813a2.443,2.443,0,0,1,2.185,1.378,2.851,2.851,0,0,1-.57,2.813,19.094,19.094,0,0,1-2.5,3.389,24.673,24.673,0,0,0-1.8,2.288A20.636,20.636,0,0,0,43.829,55.9c-0.147.573-.289,1.125-0.48,1.7A1.25,1.25,0,0,1,42.166,58.468ZM30.819,47.679a1.237,1.237,0,0,1-.9-0.385L25.015,42.16a2.041,2.041,0,0,0-2.062-.668,1.176,1.176,0,0,0-.846.641,0.564,0.564,0,0,0,.237.439,1.284,1.284,0,0,1,.059,1.794,1.236,1.236,0,0,1-1.764.06,2.985,2.985,0,0,1-.955-2.906A3.574,3.574,0,0,1,22.3,39.041a4.528,4.528,0,0,1,4.5,1.349l4.908,5.134a1.283,1.283,0,0,1-.025,1.794A1.234,1.234,0,0,1,30.819,47.679Zm2.257,15.307-0.054,0a1.26,1.26,0,0,1-1.194-1.322c0.034-.815-0.688-3.31-8.106-8.87-0.229-.172-0.392-0.294-0.469-0.358l-7.028-5.74c-1.718-1.4-2.54-3.12-2.254-4.712a3.171,3.171,0,0,1,2.147-2.487,4.427,4.427,0,0,1,4.413,1.328l1.82,1.757,5.306,4.5a1.284,1.284,0,0,1,.158,1.788,1.236,1.236,0,0,1-1.758.161l-5.366-4.554-1.879-1.811a2.053,2.053,0,0,0-1.92-.754,0.657,0.657,0,0,0-.465.53c-0.088.492,0.223,1.347,1.362,2.277l7.027,5.74c0.064,0.051.2,0.151,0.387,0.293C31.541,55.5,34.439,59,34.323,61.771A1.258,1.258,0,0,1,33.076,62.986ZM51.213,29.844a1.255,1.255,0,0,1-1.224-1.03c-1.9-10.035-10.944-14.529-19.065-14.53a1.27,1.27,0,0,1,0-2.539h0c9.148,0,19.348,5.131,21.517,16.589a1.269,1.269,0,0,1-.99,1.487A1.242,1.242,0,0,1,51.213,29.844ZM31.183,8.266a3.746,3.746,0,0,1-3.645-3.832,3.65,3.65,0,1,1,7.291,0A3.747,3.747,0,0,1,31.183,8.266Zm0-5.124a1.227,1.227,0,0,0-1.147,1.292,1.156,1.156,0,1,0,2.3,0A1.227,1.227,0,0,0,31.183,3.142Z"/>
</svg>
