<svg xmlns="http://www.w3.org/2000/svg" xmlns:xlink="http://www.w3.org/1999/xlink" viewBox="0 0 33.44 33.4"><defs><clipPath id="a" transform="translate(0 0)"><rect width="33.44" height="33.4" style="fill:none"/></clipPath></defs><title>service14</title><g style="clip-path:url(#a)"><circle cx="22.37" cy="22.44" r="5.78" style="fill:none;stroke:#d4d4d4;stroke-miterlimit:22.926000595092773;stroke-width:1.440000057220459px"/><path d="M32.72,8.38v13.7a1.22,1.22,0,0,1-1.18,1.17l-2.88.12m-12.54,0L1.9,23.26A1.19,1.19,0,0,1,.72,22.08V1.9A1.18,1.18,0,0,1,1.9.72H25.05m7.66,7.66H26.23a1.18,1.18,0,0,1-1.18-1.18V0.72ZM4.84,5.84H20.91M4.84,9.51H20.91M4.84,13.19H20.91" transform="translate(0 0)" style="fill:none;stroke:#d4d4d4;stroke-linecap:round;stroke-linejoin:round;stroke-width:1.440000057220459px"/><circle cx="22.37" cy="22.44" r="2.76" style="fill:none;stroke:#d4d4d4;stroke-miterlimit:22.926000595092773;stroke-width:1.440000057220459px"/><polyline points="17.37 25.34 14.69 30.22 19.75 32.69 22.43 28.52 25.11 32.69 30.23 30.24 27.52 25.07" style="fill:none;stroke:#d4d4d4;stroke-linecap:round;stroke-linejoin:round;stroke-width:1.440000057220459px"/></g></svg>