<svg xmlns="http://www.w3.org/2000/svg" xmlns:xlink="http://www.w3.org/1999/xlink" width="65" height="57" viewBox="0 0 65 57">
  <defs>
    <style>
      .cls-1 {
      fill: #d4d4d4;
      }
    </style>

  </defs>
  <path id="Shape_13_copy" data-name="Shape 13 copy" class="cls-1" d="M32.272,46.508c-0.191,0-.381-0.006-0.572-0.015a9.312,9.312,0,0,1-6.855-3.218,1.294,1.294,0,0,1,.183-1.811,1.269,1.269,0,0,1,1.8.184,6.776,6.776,0,0,0,5,2.275,8.6,8.6,0,0,0,6.494-2.367,1.268,1.268,0,0,1,1.8-.008,1.294,1.294,0,0,1,.009,1.82A11.1,11.1,0,0,1,32.272,46.508Zm5.846-31.1a1.269,1.269,0,0,1-.99-0.473,1.293,1.293,0,0,1,.183-1.809c0.574-.473,1.059-2.016.7-4.938A27.388,27.388,0,0,0,37.133,4,1.287,1.287,0,0,1,38,2.406a1.27,1.27,0,0,1,1.585.871,30.15,30.15,0,0,1,.96,4.595c0.3,2.451.268,5.7-1.618,7.248A1.264,1.264,0,0,1,38.119,15.409Zm-7.818.511a1.287,1.287,0,0,1-.39-2.51c0.628-.2,1.561-1.453,2.127-4.305a26.054,26.054,0,0,0,.444-6.513,1.277,1.277,0,1,1,2.543-.23,28.558,28.558,0,0,1-.484,7.248c-0.485,2.439-1.545,5.5-3.85,6.249A1.251,1.251,0,0,1,30.3,15.921Zm-8.018-1.179c-0.085,0-.169,0-0.253-0.01a1.284,1.284,0,0,1-1.176-1.38,1.27,1.27,0,0,1,1.368-1.184c0.658,0.065,1.851-.758,3.246-3.171a22.072,22.072,0,0,0,2.575-6.668,1.277,1.277,0,1,1,2.534.314,24.406,24.406,0,0,1-2.9,7.648C25.985,13.209,24.127,14.741,22.283,14.741ZM32.438,56.594c-0.349,0-.7-0.005-1.05-0.02-8.326-.316-15.731-4.359-19.807-10.815A30.174,30.174,0,0,1,8.03,37.716,6.851,6.851,0,0,1,2,34.7,11.145,11.145,0,0,1,2,22,6.823,6.823,0,0,1,8.48,19.035,28.845,28.845,0,0,1,16.522,6.582a23.507,23.507,0,0,1,31.992-.014,28.834,28.834,0,0,1,8.061,12.46A6.8,6.8,0,0,1,63.013,22a11.145,11.145,0,0,1,0,12.7,6.8,6.8,0,0,1-6,3.02,32.656,32.656,0,0,1-5.062,9.593h0A24.057,24.057,0,0,1,32.438,56.594ZM8.969,34.96a1.27,1.27,0,0,1,.643.175,1.287,1.287,0,0,1,.6.811,27.787,27.787,0,0,0,3.524,8.433C17.361,50.122,24,53.721,31.485,54s14.386-2.791,18.423-8.232a28.46,28.46,0,0,0,4.936-9.811,1.287,1.287,0,0,1,.592-0.808,1.267,1.267,0,0,1,.988-0.133,4.208,4.208,0,0,0,4.541-1.858,8.57,8.57,0,0,0,0-9.626,4.168,4.168,0,0,0-4.817-1.766,1.256,1.256,0,0,1-1.012-.062,1.283,1.283,0,0,1-.648-0.787A26.447,26.447,0,0,0,46.82,8.491a20.97,20.97,0,0,0-28.6.014,26.447,26.447,0,0,0-7.653,12.429,1.281,1.281,0,0,1-.65.789,1.265,1.265,0,0,1-1.016.059,4.188,4.188,0,0,0-4.856,1.755,8.57,8.57,0,0,0,0,9.626,4.18,4.18,0,0,0,4.573,1.846A1.269,1.269,0,0,1,8.969,34.96Zm41.96,11.581h0Zm-26.44-12A2.542,2.542,0,1,1,26.894,32,2.477,2.477,0,0,1,24.489,34.538Zm0.153-2.566-0.306.058,0.152,0A0.2,0.2,0,0,0,24.642,31.971Zm15.876,2.566A2.542,2.542,0,1,1,42.923,32,2.477,2.477,0,0,1,40.518,34.538Zm0.153-2.566-0.306.058,0.153,0A0.2,0.2,0,0,0,40.672,31.971ZM8.53,33.382a1.182,1.182,0,0,1-.281-0.031,4.933,4.933,0,0,1-3.785-5.38,4.214,4.214,0,0,1,4.2-3.962,1.307,1.307,0,0,1,1.307,1.255A1.282,1.282,0,0,1,8.73,26.581,1.683,1.683,0,0,0,7,28.224,2.388,2.388,0,0,0,8.81,30.843,1.286,1.286,0,0,1,8.53,33.382Zm47.954,0a1.286,1.286,0,0,1-.28-2.539,2.389,2.389,0,0,0,1.805-2.619,1.683,1.683,0,0,0-1.726-1.643,1.282,1.282,0,0,1-1.245-1.317,1.33,1.33,0,0,1,1.307-1.255,4.214,4.214,0,0,1,4.2,3.962,4.933,4.933,0,0,1-3.785,5.38A1.181,1.181,0,0,1,56.484,33.382Z"/>
</svg>
