<svg xmlns="http://www.w3.org/2000/svg" xmlns:xlink="http://www.w3.org/1999/xlink" viewBox="0 0 35.46 32.01"><defs><clipPath id="a" transform="translate(0 0)"><rect width="35.46" height="32.01" style="fill:none"/></clipPath></defs><title>service13</title><g style="clip-path:url(#a)"><path d="M18.73,6.26V1.86A1.15,1.15,0,0,0,17.59.72H11.89a1.15,1.15,0,0,0-1.14,1.14V6.19" transform="translate(0 0)" style="fill:none;stroke:#d4d4d4;stroke-linecap:round;stroke-linejoin:round;stroke-width:1.440000057220459px"/><path d="M10.39,2.53H5.57A1.15,1.15,0,0,0,4.43,3.67v2.7" transform="translate(0 0)" style="fill:none;stroke:#d4d4d4;stroke-linecap:round;stroke-linejoin:round;stroke-width:1.440000057220459px"/><line x1="13.95" y1="9.68" x2="13.95" y2="17.11" style="fill:none;stroke:#d4d4d4;stroke-linecap:round;stroke-linejoin:round;stroke-width:1.440000057220459px"/><line x1="1.55" y1="17.11" x2="27.32" y2="17.11" style="fill:none;stroke:#d4d4d4;stroke-linecap:round;stroke-linejoin:round;stroke-width:1.440000057220459px"/><path d="M3.86,27.62H2.31A1.61,1.61,0,0,1,.72,26V16.66L2,10.33A2.15,2.15,0,0,1,3.88,8.65c14.21,0,9.46.09,16.67,0,2.11,0,3.79,7.84,5.84,8.29l6.42,1.41a2.57,2.57,0,0,1,1.92,2.29V26a1.93,1.93,0,0,1-1.91,1.59H31" transform="translate(0 0)" style="fill:none;stroke:#d4d4d4;stroke-linecap:round;stroke-linejoin:round;stroke-width:1.440000057220459px"/><line x1="23.28" y1="27.62" x2="11.86" y2="27.62" style="fill:none;stroke:#d4d4d4;stroke-linecap:round;stroke-linejoin:round;stroke-width:1.440000057220459px"/><circle cx="27.12" cy="27.75" r="3.55" style="fill:none;stroke:#d4d4d4;stroke-linecap:round;stroke-linejoin:round;stroke-width:1.440000057220459px"/><circle cx="7.7" cy="27.75" r="3.55" style="fill:none;stroke:#d4d4d4;stroke-linecap:round;stroke-linejoin:round;stroke-width:1.440000057220459px"/><line x1="2.14" y1="6.45" x2="20.44" y2="6.45" style="fill:none;stroke:#d4d4d4;stroke-linecap:round;stroke-linejoin:round;stroke-width:1.440000057220459px"/></g></svg>