<svg xmlns="http://www.w3.org/2000/svg" xmlns:xlink="http://www.w3.org/1999/xlink" viewBox="0 0 30.11 35.46"><defs><clipPath id="a" transform="translate(0 0)"><rect width="30.11" height="35.46" style="fill:none"/></clipPath></defs><title>service12</title><g style="clip-path:url(#a)"><rect x="0.72" y="0.72" width="28.67" height="34.02" rx="1.36" ry="1.36" style="fill:none;stroke:#d4d4d4;stroke-linecap:round;stroke-linejoin:round;stroke-width:1.440000057220459px"/><circle cx="15.06" cy="13.02" r="8.42" style="fill:none;stroke:#d4d4d4;stroke-linecap:round;stroke-linejoin:round;stroke-width:1.440000057220459px"/><line x1="6.64" y1="13.02" x2="23.48" y2="13.02" style="fill:none;stroke:#d4d4d4;stroke-linecap:round;stroke-linejoin:round;stroke-width:1.440000057220459px"/><path d="M21,7.15a9.07,9.07,0,0,1-6,1.93A9.08,9.08,0,0,1,9.1,7.16" transform="translate(0 0)" style="fill:none;stroke:#d4d4d4;stroke-linecap:round;stroke-linejoin:round;stroke-width:1.440000057220459px"/><path d="M21,18.88a9.08,9.08,0,0,0-6-1.93A9.08,9.08,0,0,0,9.1,18.87" transform="translate(0 0)" style="fill:none;stroke:#d4d4d4;stroke-linecap:round;stroke-linejoin:round;stroke-width:1.440000057220459px"/><path d="M15,21.35A11.81,11.81,0,0,1,12,13a11.83,11.83,0,0,1,3-8.3" transform="translate(0 0)" style="fill:none;stroke:#d4d4d4;stroke-linecap:round;stroke-linejoin:round;stroke-width:1.440000057220459px"/><path d="M15.22,21.35a11.82,11.82,0,0,0,3-8.31,11.83,11.83,0,0,0-3-8.3" transform="translate(0 0)" style="fill:none;stroke:#d4d4d4;stroke-linecap:round;stroke-linejoin:round;stroke-width:1.440000057220459px"/><line x1="10.13" y1="29.77" x2="13.52" y2="29.77" style="fill:none;stroke:#d4d4d4;stroke-linecap:round;stroke-linejoin:round;stroke-width:1.440000057220459px"/><polyline points="13.8 30.94 12.28 24.89 11.42 24.9 11.37 24.89 9.85 30.94" style="fill:none;stroke:#d4d4d4;stroke-linecap:round;stroke-linejoin:round;stroke-width:1.440000057220459px"/><line x1="4.96" y1="24.89" x2="4.96" y2="30.94" style="fill:none;stroke:#d4d4d4;stroke-linecap:round;stroke-linejoin:round;stroke-width:1.440000057220459px"/><path d="M5,24.89H7.3a1.16,1.16,0,0,1,1.24,1v1.22a1.16,1.16,0,0,1-1.24,1H5" transform="translate(0 0)" style="fill:none;stroke:#d4d4d4;stroke-linecap:round;stroke-linejoin:round;stroke-width:1.440000057220459px"/><path d="M19.18,25L18,24.92c-3.47-.32-3.15,2.5-0.53,3s2.93,3.32-.53,3l-1.18-.11" transform="translate(0 0)" style="fill:none;stroke:#d4d4d4;stroke-linecap:round;stroke-linejoin:round;stroke-width:1.440000057220459px"/><path d="M24.85,25l-1.18-.11c-3.47-.32-3.15,2.5-0.53,3s2.93,3.32-.53,3l-1.18-.11" transform="translate(0 0)" style="fill:none;stroke:#d4d4d4;stroke-linecap:round;stroke-linejoin:round;stroke-width:1.440000057220459px"/></g></svg>