<svg xmlns="http://www.w3.org/2000/svg" xmlns:xlink="http://www.w3.org/1999/xlink" width="63" height="63" viewBox="0 0 63 63">
  <defs>
    <style>
      .cls-1 {
      fill: #d4d4d4;
      }
    </style>
  </defs>
  <path id="Shape_12_copy" data-name="Shape 12 copy" class="cls-1" d="M48.665,35.882a1.262,1.262,0,0,1-1.173-.8c-1.311-3.326-4.453-6.789-6.978-9.57a28.134,28.134,0,0,1-4.089-5.144A13.706,13.706,0,0,1,48.666.548a13.692,13.692,0,0,1,13.682,13.7,13.582,13.582,0,0,1-1.441,6.125A23.089,23.089,0,0,1,56.922,25.1c-2.766,2.823-6.208,6.335-7.028,9.81a1.261,1.261,0,0,1-1.137.968C48.726,35.882,48.7,35.882,48.665,35.882Zm0-32.807A11.177,11.177,0,0,0,37.51,14.246a11.059,11.059,0,0,0,1.173,4.993,27.854,27.854,0,0,0,3.7,4.576,52.007,52.007,0,0,1,6.13,7.7c1.584-3.055,4.312-5.838,6.609-8.182a22.777,22.777,0,0,0,3.529-4.092A11.171,11.171,0,0,0,48.666,3.074Zm0,18.459a7.424,7.424,0,1,1,7.416-7.425A7.429,7.429,0,0,1,48.666,21.533Zm0-12.323a4.9,4.9,0,1,0,4.892,4.9A4.9,4.9,0,0,0,48.666,9.21ZM19,60.82a1.261,1.261,0,0,1-1.173-.8C16.008,55.416,11.7,50.67,8.239,46.857c-2.442-2.69-4.551-5.013-5.492-6.9A18.168,18.168,0,0,1,31.839,18.977a18.207,18.207,0,0,1,3.406,20.985c-0.891,1.782-2.951,3.885-5.337,6.319-3.8,3.881-8.539,8.713-9.683,13.566a1.26,1.26,0,0,1-1.137.97A0.8,0.8,0,0,1,19,60.82Zm0-44.643A15.664,15.664,0,0,0,3.36,31.833a15.5,15.5,0,0,0,1.645,7c0.786,1.572,2.785,3.775,5.1,6.326,2.928,3.227,6.438,7.093,8.714,11.133,2.043-4.389,5.994-8.418,9.286-11.779,2.144-2.186,4.169-4.253,4.882-5.681A15.655,15.655,0,0,0,19,16.177Zm0,25.116a9.647,9.647,0,1,1,9.636-9.647A9.651,9.651,0,0,1,19,41.294Zm0-16.769a7.121,7.121,0,1,0,7.112,7.122A7.125,7.125,0,0,0,19,24.525Zm9.794,37.67H28.756a41.552,41.552,0,0,1-5.189-.413,1.263,1.263,0,0,1,.39-2.5,39.559,39.559,0,0,0,4.867.382A1.263,1.263,0,0,1,28.791,62.195Zm5.047,0a1.263,1.263,0,0,1-.029-2.525c1.649-.04,3.339-0.111,5-0.2a1.229,1.229,0,0,1,1.331,1.191,1.263,1.263,0,0,1-1.189,1.332c-1.693.1-3.41,0.168-5.086,0.207H33.838Zm10.08-.544a1.263,1.263,0,0,1-.1-2.523c1.277-.1,2.49-0.206,3.608-0.308q0.695-.067,1.336-0.161a1.264,1.264,0,0,1,.363,2.5c-0.466.066-.955,0.127-1.465,0.175-1.13.1-2.356,0.211-3.643,0.312A0.981,0.981,0,0,1,43.918,61.647Zm9.851-1.885a1.263,1.263,0,0,1-.577-2.387c1.336-.686,2.1-1.554,2.1-2.384a1.527,1.527,0,0,0-.01-0.176,1.263,1.263,0,0,1,1.1-1.41,1.28,1.28,0,0,1,1.408,1.1,3.864,3.864,0,0,1,.031.488c0,1.064-.452,3.081-3.473,4.632A1.264,1.264,0,0,1,53.769,59.762Zm-0.543-7.373a1.267,1.267,0,0,1-.524-0.113,14.228,14.228,0,0,0-4.474-1.1A1.263,1.263,0,0,1,47.093,49.8a1.277,1.277,0,0,1,1.378-1.136,16.575,16.575,0,0,1,5.28,1.316A1.264,1.264,0,0,1,53.225,52.389Zm-9.917-1.542a1.032,1.032,0,0,1-.1,0c-3.179-.257-4.13-0.552-4.641-0.807a5.114,5.114,0,0,1-.9-0.565,1.263,1.263,0,0,1,1.559-1.988,2.614,2.614,0,0,0,.459.29,13.687,13.687,0,0,0,3.722.552A1.263,1.263,0,0,1,43.308,50.846Zm-5.558-5.56a1.25,1.25,0,0,1-.828-0.309,1.264,1.264,0,0,1-.123-1.782,5.168,5.168,0,0,1,2.476-1.514c0.336-.1.717-0.2,1.13-0.3,0.491-.123,1.03-0.259,1.58-0.428a1.263,1.263,0,0,1,.746,2.412c-0.595.185-1.178,0.333-1.71,0.466-0.374.094-.72,0.181-1.023,0.27a2.722,2.722,0,0,0-1.3.752A1.257,1.257,0,0,1,37.75,45.286Zm8.831-4.5a1.262,1.262,0,0,1-.952-2.09,10.8,10.8,0,0,0,1.907-3.41,1.262,1.262,0,1,1,2.372.861,13.271,13.271,0,0,1-2.372,4.2A1.26,1.26,0,0,1,46.581,40.79Z"/>
</svg>
