<svg xmlns="http://www.w3.org/2000/svg" width="16" height="14" viewBox="0 0 16 14">
  <metadata><?xpacket begin="﻿" id="W5M0MpCehiHzreSzNTczkc9d"?>
<x:xmpmeta xmlns:x="adobe:ns:meta/" x:xmptk="Adobe XMP Core 5.6-c138 79.159824, 2016/09/14-01:09:01        ">
   <rdf:RDF xmlns:rdf="http://www.w3.org/1999/02/22-rdf-syntax-ns#">
      <rdf:Description rdf:about=""/>
   </rdf:RDF>
</x:xmpmeta>
                                                                                                    
                                                                                                    
                                                                                                    
                                                                                                    
                                                                                                    
                                                                                                    
                                                                                                    
                                                                                                    
                                                                                                    
                                                                                                    
                                                                                                    
                                                                                                    
                                                                                                    
                                                                                                    
                                                                                                    
                                                                                                    
                                                                                                    
                                                                                                    
                                                                                                    
                                                                                                    
                           
<?xpacket end="w"?></metadata>
<defs>
    <style>
      .cls-1 {
        fill: #2b2b2b;
        fill-rule: evenodd;
      }
    </style>
  </defs>
  <path id="twitter_bird_copy" data-name="twitter bird copy" class="cls-1" d="M0.458,6.343c0,1.585,1.367,2.4,2.863,2.7a2.074,2.074,0,0,1-1.415.245c0.416,1.3,1.593,1.744,3.024,1.771A6.48,6.48,0,0,1,.837,12.212a6.612,6.612,0,0,1-.78-0.046,9.616,9.616,0,0,0,5.014,1.842,8.516,8.516,0,0,0,8.937-8.79q0-.213-0.009-0.423A8.8,8.8,0,0,0,16.053,3.04a6.792,6.792,0,0,1-1.932.092,2.681,2.681,0,0,0,1.6-2.106,7.956,7.956,0,0,1-2.237,1.028A3.386,3.386,0,0,0,11.095.9a3.244,3.244,0,0,0-3,3.483,2.514,2.514,0,0,0,.053.652C5.425,4.895,2.541,4,.927,2.024A3.256,3.256,0,0,0,.485,3.669,3.564,3.564,0,0,0,2.232,6.391,2.826,2.826,0,0,1,.458,6.343Z"/>
</svg>
