<svg xmlns="http://www.w3.org/2000/svg" xmlns:xlink="http://www.w3.org/1999/xlink" viewBox="0 0 34.32 32.44"><defs><clipPath id="a" transform="translate(0 0)"><rect width="34.32" height="32.44" style="fill:none"/></clipPath></defs><title>call_24</title><g style="clip-path:url(#a)"><path d="M9.07,11.21c-1.64,1.6-1.15,5.19,1.2,8.25s5.69,4.47,7.66,3.3" transform="translate(0 0)" style="fill:none;stroke:#fff;stroke-linecap:round;stroke-linejoin:round;stroke-width:1.440000057220459px"/><path d="M23.26,29.73a12.22,12.22,0,0,1-1.83,1.46c-2.7,2-9.1-1.77-14.68-9S-0.71,7.72,1.84,5.62a8.49,8.49,0,0,1,1.88-1.4" transform="translate(0 0)" style="fill:none;stroke:#fff;stroke-linecap:round;stroke-linejoin:round;stroke-width:1.440000057220459px"/><rect x="20.77" y="18.82" width="4.71" height="10.24" rx="0.88" ry="0.88" transform="translate(-9.79 19) rotate(-37.46)" style="fill:none;stroke:#fff;stroke-linecap:round;stroke-linejoin:round;stroke-width:1.440000057220459px"/><rect x="6.92" y="0.74" width="4.71" height="10.24" rx="0.88" ry="0.88" transform="translate(-1.65 6.85) rotate(-37.45)" style="fill:none;stroke:#fff;stroke-linecap:round;stroke-linejoin:round;stroke-width:1.440000057220459px"/><polyline points="31.3 12.31 31.3 0.72 25.64 8.89 33.6 8.77" style="fill:none;stroke:#fff;stroke-linecap:round;stroke-linejoin:round;stroke-width:1.440000057220459px"/><polyline points="24.29 12.31 17.02 12.31 21.38 7.96" style="fill:none;stroke:#fff;stroke-linecap:round;stroke-linejoin:round;stroke-width:1.440000057220459px"/><path d="M21.38,8c3-2.7,2.17-5.46.29-6.49C18.78-.12,16.64,3,17,5" transform="translate(0 0)" style="fill:none;stroke:#fff;stroke-linecap:round;stroke-linejoin:round;stroke-width:1.440000057220459px"/></g></svg>