<?xml version="1.0" encoding="utf-8"?>
<!-- Generator: Adobe Illustrator 19.0.0, SVG Export Plug-In . SVG Version: 6.00 Build 0)  -->
<svg version="1.1" id="Layer_1" xmlns="http://www.w3.org/2000/svg" xmlns:xlink="http://www.w3.org/1999/xlink" x="0px" y="0px"
	 viewBox="0 0 88 60" style="enable-background:new 0 0 88 60;" xml:space="preserve">
<style type="text/css">
	.st0{clip-path:url(#SVGID_2_);}
</style>
<g>
	<defs>
		<rect id="SVGID_1_" width="88" height="60"/>
	</defs>
	<clipPath id="SVGID_2_">
		<use xlink:href="#SVGID_1_"  style="overflow:visible;"/>
	</clipPath>
	<path class="st0" d="M10,0C4.5,0,0,4.5,0,10v40c0,5.5,4.5,10,10,10h68c5.5,0,10-4.5,10-10V10c0-5.5-4.5-10-10-10H10z M10,4h68
		c3.4,0,6,2.6,6,6v2H4v-2C4,6.6,6.6,4,10,4 M4,16h80v34c0,3.4-2.6,6-6,6H10c-3.4,0-6-2.6-6-6V16z M10,22c-1.1,0-2,0.9-2,2v26
		c0,1.1,0.9,2,2,2h24c1.1,0,2-0.9,2-2V24c0-1.1-0.9-2-2-2H10z M12,26h20v18.6c-0.5-1.3-1.3-2.5-2.2-3.5c-0.8-0.8-1.7-1.4-2.7-1.9
		c0.6-0.9,0.9-2,0.9-3.2c0-3.3-2.7-6-6-6c-3.3,0-6,2.7-6,6c0,1.2,0.4,2.2,0.9,3.2c-1,0.5-1.9,1.1-2.7,1.9c-0.9,1-1.7,2.1-2.2,3.5V26
		z M43.8,28c-1.1,0.1-2,1-1.9,2.1c0.1,1.1,1,2,2.1,1.9h32c1.1,0,2-0.9,2-2c0-1.1-0.9-2-2-2H76H44C43.9,28,43.9,28,43.8,28 M22,34
		c1.1,0,2,0.9,2,2s-0.9,2-2,2c-1.1,0-2-0.9-2-2S20.9,34,22,34 M22,42c2,0,3.7,0.6,4.9,1.9c0.9,0.9,1.4,2.4,1.8,4.1H15.3
		c0.3-1.8,0.9-3.2,1.8-4.1C18.3,42.6,20,42,22,42 M43.8,42c-1.1,0.1-2,1-1.9,2.1c0.1,1.1,1,2,2.1,1.9h32c1.1,0,2-0.9,2-2
		c0-1.1-0.9-2-2-2H76H44C43.9,42,43.9,42,43.8,42"/>
</g>
</svg>
