<?xml version="1.0" encoding="utf-8"?>
<!-- Generator: Adobe Illustrator 19.0.0, SVG Export Plug-In . SVG Version: 6.00 Build 0)  -->
<svg version="1.1" id="Layer_1" xmlns="http://www.w3.org/2000/svg" xmlns:xlink="http://www.w3.org/1999/xlink" x="0px" y="0px"
	 viewBox="0 0 90.5 90.5" style="enable-background:new 0 0 90.5 90.5;" xml:space="preserve">
<style type="text/css">
	.st0{clip-path:url(#SVGID_2_);}
	.st1{clip-path:url(#SVGID_2_);fill:none;stroke:#000000;stroke-width:0.5;stroke-miterlimit:10;}
</style>
<g>
	<defs>
		<rect id="SVGID_1_" width="90.5" height="90.5"/>
	</defs>
	<clipPath id="SVGID_2_">
		<use xlink:href="#SVGID_1_"  style="overflow:visible;"/>
	</clipPath>
	<path class="st0" d="M37.3,0.2c-1.1,0.1-1.7,0.8-2,1.7l-1.8,11.5c-0.8,0.3-1.7,0.7-2.5,1l-9.3-6.9c-0.8-0.6-1.9-0.5-2.6,0.2
		L7.8,19.1c-0.7,0.7-0.8,1.8-0.2,2.6l6.9,9.4c-0.4,0.8-0.7,1.6-1,2.4L1.9,35.2c-0.9,0.1-1.7,1-1.7,2v16c0,0.9,0.8,1.8,1.7,2L13.4,57
		c0.3,0.8,0.7,1.7,1,2.5l-6.9,9.3c-0.6,0.8-0.5,1.9,0.2,2.6l11.3,11.3c0.7,0.7,1.8,0.7,2.6,0.2l9.3-6.8c0.8,0.4,1.6,0.7,2.5,1
		l1.8,11.4c0.1,0.9,1,1.7,2,1.7h16c0.9,0,1.8-0.8,2-1.7L57,77.1c0.8-0.3,1.7-0.7,2.5-1l9.3,6.8c0.8,0.6,1.9,0.5,2.6-0.2l11.3-11.3
		c0.7-0.7,0.8-1.8,0.2-2.6l-6.9-9.3c0.4-0.8,0.7-1.6,1-2.5l11.5-1.8c0.9-0.1,1.7-1,1.7-2v-16c0-1-0.7-1.9-1.7-2l-11.5-1.8
		c-0.3-0.8-0.7-1.6-1-2.4l6.9-9.4c0.6-0.8,0.5-1.9-0.2-2.6L71.4,7.7c-0.7-0.7-1.8-0.7-2.6-0.2l-9.3,6.9c-0.8-0.4-1.6-0.7-2.5-1
		L55.2,1.9c-0.1-0.9-1-1.7-2-1.7H37.3z M39,4.2h12.6l1.7,10.8c0.1,0.7,0.7,1.4,1.3,1.6c1.5,0.5,2.9,1.1,4.3,1.8
		c0.7,0.3,1.5,0.3,2.1-0.2l8.9-6.5l8.9,8.9l-6.5,8.9c-0.4,0.6-0.5,1.4-0.2,2.1c0.7,1.4,1.3,2.8,1.8,4.2c0.2,0.7,0.9,1.3,1.6,1.4
		L86.3,39v12.5l-10.9,1.7c-0.7,0.1-1.4,0.7-1.6,1.4c-0.5,1.5-1.1,2.9-1.8,4.3c-0.3,0.6-0.3,1.5,0.2,2.1l6.5,8.9l-8.9,8.9l-8.9-6.5
		c-0.6-0.4-1.4-0.5-2.1-0.2c-1.4,0.7-2.8,1.3-4.3,1.8c-0.7,0.2-1.2,0.9-1.3,1.6l-1.7,10.9H39l-1.7-10.9c-0.1-0.7-0.7-1.4-1.3-1.6
		c-1.5-0.5-2.9-1.1-4.3-1.8c-0.7-0.3-1.5-0.3-2.1,0.2l-8.9,6.5l-8.9-8.9l6.5-8.9c0.4-0.6,0.5-1.4,0.2-2.1c-0.7-1.4-1.3-2.8-1.8-4.3
		c-0.2-0.7-0.9-1.3-1.6-1.4L4.3,51.5V39l10.9-1.7c0.7-0.1,1.4-0.7,1.6-1.4c0.5-1.5,1.1-2.9,1.8-4.2c0.3-0.7,0.3-1.5-0.2-2.1
		l-6.5-8.9l8.9-8.9l8.9,6.5c0.6,0.4,1.4,0.5,2.1,0.2c1.4-0.7,2.8-1.3,4.3-1.8c0.7-0.2,1.2-0.9,1.3-1.6L39,4.2z M45.3,24.2
		c-11.6,0-21,9.4-21,21s9.4,21,21,21s21-9.4,21-21S56.8,24.2,45.3,24.2 M45.3,28.2c9.4,0,17,7.6,17,17c0,9.4-7.6,17-17,17
		s-17-7.6-17-17C28.3,35.8,35.8,28.2,45.3,28.2"/>
	<path class="st1" d="M37.3,0.2c-1.1,0.1-1.7,0.8-2,1.7l-1.8,11.5c-0.8,0.3-1.7,0.7-2.5,1l-9.3-6.9c-0.8-0.6-1.9-0.5-2.6,0.2
		L7.8,19.1c-0.7,0.7-0.8,1.8-0.2,2.6l6.9,9.4c-0.4,0.8-0.7,1.6-1,2.4L1.9,35.2c-0.9,0.1-1.7,1-1.7,2v16c0,0.9,0.8,1.8,1.7,2L13.4,57
		c0.3,0.8,0.7,1.7,1,2.5l-6.9,9.3c-0.6,0.8-0.5,1.9,0.2,2.6l11.3,11.3c0.7,0.7,1.8,0.7,2.6,0.2l9.3-6.8c0.8,0.4,1.6,0.7,2.5,1
		l1.8,11.4c0.1,0.9,1,1.7,2,1.7h16c0.9,0,1.8-0.8,2-1.7L57,77.1c0.8-0.3,1.7-0.7,2.5-1l9.3,6.8c0.8,0.6,1.9,0.5,2.6-0.2l11.3-11.3
		c0.7-0.7,0.8-1.8,0.2-2.6l-6.9-9.3c0.4-0.8,0.7-1.6,1-2.5l11.5-1.8c0.9-0.1,1.7-1,1.7-2v-16c0-1-0.7-1.9-1.7-2l-11.5-1.8
		c-0.3-0.8-0.7-1.6-1-2.4l6.9-9.4c0.6-0.8,0.5-1.9-0.2-2.6L71.4,7.7c-0.7-0.7-1.8-0.7-2.6-0.2l-9.3,6.9c-0.8-0.4-1.6-0.7-2.5-1
		L55.2,1.9c-0.1-0.9-1-1.7-2-1.7H37.3z M39,4.2h12.6l1.7,10.8c0.1,0.7,0.7,1.4,1.3,1.6c1.5,0.5,2.9,1.1,4.3,1.8
		c0.7,0.3,1.5,0.3,2.1-0.2l8.9-6.5l8.9,8.9l-6.5,8.9c-0.4,0.6-0.5,1.4-0.2,2.1c0.7,1.4,1.3,2.8,1.8,4.2c0.2,0.7,0.9,1.3,1.6,1.4
		L86.3,39v12.5l-10.9,1.7c-0.7,0.1-1.4,0.7-1.6,1.4c-0.5,1.5-1.1,2.9-1.8,4.3c-0.3,0.6-0.3,1.5,0.2,2.1l6.5,8.9l-8.9,8.9l-8.9-6.5
		c-0.6-0.4-1.4-0.5-2.1-0.2c-1.4,0.7-2.8,1.3-4.3,1.8c-0.7,0.2-1.2,0.9-1.3,1.6l-1.7,10.9H39l-1.7-10.9c-0.1-0.7-0.7-1.4-1.3-1.6
		c-1.5-0.5-2.9-1.1-4.3-1.8c-0.7-0.3-1.5-0.3-2.1,0.2l-8.9,6.5l-8.9-8.9l6.5-8.9c0.4-0.6,0.5-1.4,0.2-2.1c-0.7-1.4-1.3-2.8-1.8-4.3
		c-0.2-0.7-0.9-1.3-1.6-1.4L4.3,51.5V39l10.9-1.7c0.7-0.1,1.4-0.7,1.6-1.4c0.5-1.5,1.1-2.9,1.8-4.2c0.3-0.7,0.3-1.5-0.2-2.1
		l-6.5-8.9l8.9-8.9l8.9,6.5c0.6,0.4,1.4,0.5,2.1,0.2c1.4-0.7,2.8-1.3,4.3-1.8c0.7-0.2,1.2-0.9,1.3-1.6L39,4.2z M45.3,24.2
		c-11.6,0-21,9.4-21,21s9.4,21,21,21s21-9.4,21-21S56.8,24.2,45.3,24.2z M45.3,28.2c9.4,0,17,7.6,17,17c0,9.4-7.6,17-17,17
		s-17-7.6-17-17C28.3,35.8,35.8,28.2,45.3,28.2z"/>
</g>
</svg>
