<?xml version="1.0" encoding="utf-8"?>
<!-- Generator: Adobe Illustrator 19.0.0, SVG Export Plug-In . SVG Version: 6.00 Build 0)  -->
<svg version="1.1" id="Layer_1" xmlns="http://www.w3.org/2000/svg" xmlns:xlink="http://www.w3.org/1999/xlink" x="0px" y="0px"
	 viewBox="0 0 88.4 88.3" style="enable-background:new 0 0 88.4 88.3;" xml:space="preserve">
<style type="text/css">
	.st0{clip-path:url(#SVGID_2_);}
</style>
<g>
	<defs>
		<rect id="SVGID_1_" width="88.4" height="88.3"/>
	</defs>
	<clipPath id="SVGID_2_">
		<use xlink:href="#SVGID_1_"  style="overflow:visible;"/>
	</clipPath>
	<path class="st0" d="M59.6,35.5c-0.8-0.8-2-0.8-2.8,0c-0.8,0.8-0.8,2,0,2.8l4.7,4.7c0.4,0.4,0.9,0.6,1.4,0.6s1-0.2,1.4-0.6
		c0.8-0.8,0.8-2,0-2.8L59.6,35.5z"/>
	<path class="st0" d="M48.2,24.1c-0.8-0.8-2-0.8-2.8,0c-0.8,0.8-0.8,2,0,2.8l4.7,4.7c0.4,0.4,0.9,0.6,1.4,0.6s1-0.2,1.4-0.6
		c0.8-0.8,0.8-2,0-2.8L48.2,24.1z"/>
	<path class="st0" d="M73.5,52.2L73.5,52.2l14.3-14.3c0.4-0.4,0.6-0.9,0.6-1.4s-0.2-1-0.6-1.4L77,24.3c-0.4-0.4-0.9-0.6-1.5-0.6
		c-0.5,0-1.1,0.2-1.4,0.7L74,24.5l-0.1,0.1c-1.4,1.4-3.2,2.1-5.1,2.1s-3.7-0.7-5.1-2.1c-1.4-1.4-2.1-3.2-2.1-5.1s0.7-3.7,2.1-5.1
		l0.1-0.1l0.1-0.1c0.4-0.4,0.6-0.9,0.7-1.4c0-0.5-0.2-1.1-0.6-1.5L53.3,0.6C52.9,0.2,52.4,0,51.9,0s-1,0.2-1.4,0.6L36.2,14.9
		L0.6,50.5c-0.8,0.8-0.8,2,0,2.8L11.3,64c0.8,0.8,2.1,0.8,2.8,0c1.4-1.4,3.2-2.1,5.1-2.1c1.9,0,3.7,0.7,5.1,2.1
		c1.4,1.4,2.1,3.2,2.1,5.1c0,1.9-0.7,3.7-2.1,5.1c-0.4,0.4-0.6,0.9-0.6,1.4s0.2,1,0.6,1.4L35,87.7c0.4,0.4,0.9,0.6,1.4,0.6
		s1-0.2,1.4-0.6L73.5,52.2z M36.5,83.5l-8-8c1.3-1.9,2-4.1,2-6.4c0-3-1.2-5.8-3.3-7.9c-2.1-2.1-4.9-3.3-7.9-3.3
		c-2.3,0-4.5,0.7-6.4,2l-8-8l32.7-32.7l1.1,1.1c0.4,0.4,0.9,0.6,1.4,0.6s1-0.2,1.4-0.6c0.8-0.8,0.8-2,0-2.8l-1.1-1.1L51.9,4.9l8,8
		c-1.5,1.9-2.3,4.3-2.3,6.7c0,3,1.2,5.8,3.3,7.9c2.1,2.1,4.9,3.3,7.9,3.3c2.5,0,4.8-0.8,6.7-2.3l8,8L72.1,47.9L71,46.8
		c-0.8-0.8-2-0.8-2.8,0s-0.8,2,0,2.8l1.1,1.1L36.5,83.5z"/>
</g>
</svg>
