<?xml version="1.0" encoding="utf-8"?>
<!-- Generator: Adobe Illustrator 19.0.0, SVG Export Plug-In . SVG Version: 6.00 Build 0)  -->
<svg version="1.1" id="Слой_1" xmlns="http://www.w3.org/2000/svg" xmlns:xlink="http://www.w3.org/1999/xlink" x="0px" y="0px"
	 viewBox="0 0 70 30" style="enable-background:new 0 0 70 30;" xml:space="preserve">
<style type="text/css">
	.st0{fill:#242D69;}
</style>
<title>visa_big</title>
<desc>Created with Sketch.</desc>
<g id="Page-1" sketch:type="MSPage">
	<g id="_x30_1_x5F_Sposobi_x5F_Desktop" transform="translate(-328.000000, -870.000000)" sketch:type="MSArtboardGroup">
		<g id="Банковские-карты" transform="translate(328.000000, 770.000000)" sketch:type="MSLayerGroup">
			<g id="visa" transform="translate(2.000000, 105.000000)" sketch:type="MSShapeGroup">
				<path id="Fill-74" class="st0" d="M19.5,20.3l6.1-20h5.4l-6.1,20H19.5"/>
				<path id="Fill-75" class="st0" d="M12.3,8.8c-1.2,2.2-2,3.3-2.3,4.7H9.9c0.1-1.8-0.2-4-0.2-5.2l-0.5-8H0.1L0,0.9
					c2.3,0,3.7,1.2,4.1,3.6l1.8,15.8h5.6L22.8,0.4h-5.6L12.3,8.8z"/>
				<path id="Fill-76" class="st0" d="M58.7,8.5c-0.1-1.5-0.1-3.5,0-4.7h-0.1c-0.3,1-1.7,4-2.4,5.4l-2,4.4h4.7L58.7,8.5L58.7,8.5z
					 M59.3,20.3l-0.1-3l-6.7,0l-1.4,3h-5.9L55.8,0.4H63l1.8,19.9H59.3L59.3,20.3z"/>
				<path id="Fill-77" class="st0" d="M37,21c-3.8,0-6.3-1.2-8.1-2.3l2.6-3.9c1.6,0.9,2.9,2,5.8,2c0.9,0,1.8-0.2,2.4-1.1
					c0.8-1.3-0.2-2-2.3-3.2l-1-0.7c-3.1-2.1-4.5-4.2-3-7.7c0.9-2.3,3.4-4,7.5-4c2.8,0,5.5,1.2,7,2.4l-3,3.5
					c-1.5-1.2-2.8-1.8-4.2-1.8c-1.1,0-2,0.4-2.3,1C37.8,6.2,38.5,7,40.2,8l1.2,0.8c3.8,2.4,4.7,4.9,3.7,7.3C43.5,20.1,40.3,21,37,21
					"/>
			</g>
		</g>
	</g>
</g>
</svg>
