<?xml version="1.0" encoding="utf-8"?>
<!-- Generator: Adobe Illustrator 19.0.0, SVG Export Plug-In . SVG Version: 6.00 Build 0)  -->
<svg version="1.1" id="Слой_1" xmlns="http://www.w3.org/2000/svg" xmlns:xlink="http://www.w3.org/1999/xlink" x="0px" y="0px"
	 viewBox="0 0 60 38" style="enable-background:new 0 0 60 38;" xml:space="preserve">
<style type="text/css">
	.st0{fill:#F2AD3D;}
	.st1{fill:#D82331;}
	.st2{fill:#FFFFFF;}
	.st3{fill:none;stroke:#FFFFFF;stroke-width:0.216;}
</style>
<title>mastercard_big</title>
<desc>Created with Sketch.</desc>
<g id="Page-1" sketch:type="MSPage">
	<g id="_x30_1_x5F_Sposobi_x5F_Desktop" transform="translate(-506.000000, -863.000000)" sketch:type="MSArtboardGroup">
		<g id="Банковские-карты" transform="translate(328.000000, 770.000000)" sketch:type="MSLayerGroup">
			<g id="master" transform="translate(181.000000, 95.000000)" sketch:type="MSShapeGroup">
				<path id="Fill-4" class="st0" d="M38.3,32.8l0.8,0l0.8-0.1l0.8-0.1l0.8-0.1l0.8-0.2l0.8-0.2l0.8-0.3l0.7-0.3l0.7-0.3l0.7-0.4
					l0.7-0.4l0.7-0.4l0.6-0.5l0.6-0.5l0.6-0.5l0.6-0.5l0.5-0.6l0.5-0.6l0.5-0.6l0.5-0.6l0.4-0.7l0.4-0.7l0.4-0.7l0.3-0.7l0.3-0.7
					l0.3-0.8l0.2-0.8l0.2-0.8l0.1-0.8l0.1-0.8l0.1-0.8l0-0.8l0-0.8l-0.1-0.8l-0.1-0.8l-0.1-0.8l-0.2-0.8L54,11.5l-0.3-0.8L53.4,10
					l-0.3-0.7l-0.4-0.7l-0.4-0.7l-0.4-0.7l-0.5-0.6L51,6l-0.5-0.6l-0.5-0.6l-0.6-0.5l-0.6-0.5l-0.6-0.5l-0.6-0.5l-0.7-0.4L46.1,2
					l-0.7-0.4l-0.7-0.3L44,1l-0.8-0.3l-0.8-0.2l-0.8-0.2l-0.8-0.1L40,0.1L39.2,0l-0.8,0l-0.8,0l-0.8,0.1l-0.8,0.1L35,0.3l-0.8,0.2
					l-0.8,0.2L32.7,1L32,1.3l-0.7,0.3L30.5,2l-0.7,0.4l-0.7,0.4l-0.6,0.5l-0.6,0.5l-0.6,0.5l-0.6,0.5l-0.5,0.6L25.7,6l-0.5,0.6
					l-0.5,0.6l-0.4,0.7l-0.4,0.7l-0.4,0.7L23.3,10L23,10.7l-0.3,0.8l-0.2,0.8l-0.2,0.8l-0.1,0.8l-0.1,0.8L22,15.5l0,0.8l0,0.8
					l0.1,0.8l0.1,0.8l0.1,0.8l0.2,0.8l0.2,0.8L23,22l0.3,0.7l0.3,0.7l0.4,0.7l0.4,0.7l0.4,0.7l0.5,0.6l0.5,0.6l0.5,0.6l0.5,0.6
					l0.6,0.5l0.6,0.5l0.6,0.5l0.6,0.5l0.7,0.4l0.7,0.4l0.7,0.4l0.7,0.3l0.7,0.3l0.8,0.3l0.8,0.2l0.8,0.2l0.8,0.1l0.8,0.1l0.8,0.1
					L38.3,32.8"/>
				<path id="Fill-5" class="st1" d="M16.4,32.8l0.8,0l0.8-0.1l0.8-0.1l0.8-0.1l0.8-0.2l0.8-0.2l0.8-0.3l0.7-0.3l0.7-0.3l0.7-0.4
					l0.7-0.4l0.7-0.4l0.6-0.5l0.6-0.5l0.6-0.5L28,28l0.5-0.6l0.5-0.6l0.5-0.6l0.5-0.6l0.4-0.7l0.4-0.7l0.4-0.7l0.3-0.7l0.3-0.7
					l0.3-0.8l0.2-0.8l0.2-0.8l0.1-0.8l0.1-0.8l0.1-0.8l0-0.8l0-0.8l-0.1-0.8l-0.1-0.8l-0.1-0.8l-0.2-0.8L32,11.5l-0.3-0.8L31.5,10
					l-0.3-0.7l-0.4-0.7l-0.4-0.7L30,7.2l-0.5-0.6L29,6l-0.5-0.6L28,4.8l-0.6-0.5l-0.6-0.5l-0.6-0.5l-0.6-0.5l-0.7-0.4L24.2,2
					l-0.7-0.4l-0.7-0.3L22,1l-0.8-0.3l-0.8-0.2l-0.8-0.2l-0.8-0.1l-0.8-0.1L17.2,0l-0.8,0l-0.8,0l-0.8,0.1l-0.8,0.1l-0.8,0.1
					l-0.8,0.2l-0.8,0.2L10.8,1L10,1.3L9.3,1.6L8.6,2L7.9,2.4L7.2,2.8L6.6,3.3L6,3.7L5.4,4.3L4.8,4.8L4.3,5.4L3.7,6L3.3,6.6L2.8,7.2
					L2.4,7.9L2,8.6L1.6,9.3L1.3,10L1,10.7l-0.3,0.8l-0.2,0.8l-0.2,0.8l-0.1,0.8l-0.1,0.8L0,15.5l0,0.8l0,0.8L0.1,18l0.1,0.8l0.1,0.8
					l0.2,0.8l0.2,0.8L1,22l0.3,0.7l0.3,0.7L2,24.2l0.4,0.7l0.4,0.7l0.5,0.6l0.5,0.6l0.5,0.6L4.8,28l0.6,0.5L6,29l0.6,0.5L7.2,30
					l0.7,0.4l0.7,0.4l0.7,0.4l0.7,0.3l0.7,0.3l0.8,0.3l0.8,0.2l0.8,0.2l0.8,0.1l0.8,0.1l0.8,0.1L16.4,32.8"/>
				<path id="Fill-6" class="st0" d="M25.4,6.3h8.7V5.4h-8L25.4,6.3"/>
				<path id="Fill-7" class="st0" d="M24.1,8.3h10V7.4h-9.5L24.1,8.3"/>
				<path id="Fill-8" class="st0" d="M23.2,10.2h11V9.3H23.6L23.2,10.2"/>
				<path id="Fill-9" class="st0" d="M22.5,12.2h11.6v-0.9H22.8L22.5,12.2"/>
				<path id="Fill-10" class="st0" d="M22.9,21.8h11.3v-0.9H22.6L22.9,21.8"/>
				<path id="Fill-11" class="st0" d="M23.7,23.7h10.5v-0.9H23.3L23.7,23.7"/>
				<path id="Fill-12" class="st0" d="M24.9,25.7h9.3v-0.9h-9.8L24.9,25.7"/>
				<path id="Fill-13" class="st0" d="M26.5,27.7h7.7v-0.9h-8.4L26.5,27.7"/>
				<path id="Fill-14" class="st0" d="M22.1,14.2h12v-0.9H22.3L22.1,14.2"/>
				<path id="Fill-15" class="st0" d="M29.4,19.8H34v-0.9h-4.4L29.4,19.8"/>
				<path id="Fill-16" class="st0" d="M29.8,17.8H34v-0.9H30L29.8,17.8"/>
				<path id="Fill-17" class="st0" d="M21.8,16.9H23v0.9h-1.1L21.8,16.9"/>
				<path id="Fill-18" class="st2" d="M19.6,15.9L19.6,15.9l-0.2,0l-0.1,0l-0.1,0l-0.1,0l-0.1,0l-0.1,0l-0.1,0l-0.1,0l-0.1,0l-0.1,0
					l-0.1,0h-0.1l-0.1,0l-0.1,0l-0.2,0l-0.1,0l-0.1,0l-0.1,0l-0.1,0l-0.1,0l-0.1,0l-0.1,0.1l0,0.1l0,0.1l0,0.1v0.1l0,0.1l0,0.1
					l0,0.1l0.1,0.1l0.1,0.1l0.1,0.1l0.2,0.1l0.2,0.1l0.2,0.1l0.2,0.1l0.2,0.1l0.2,0.1l0.2,0.1l0.2,0.1l0.1,0.1l0.1,0.2l0.1,0.2
					l0.1,0.2l0,0.3l0,0.3l0,0.3l-0.1,0.2l-0.1,0.2l-0.1,0.2l-0.1,0.2L18.9,20l-0.2,0.1l-0.2,0.1l-0.2,0.1l-0.2,0.1l-0.2,0.1l-0.2,0
					l-0.2,0l-0.2,0l-0.2,0l-0.2,0h-0.2l-0.2,0h-0.2l-0.2,0l-0.2,0l-0.1,0l-0.1,0l-0.1,0l-0.1,0l-0.1,0l-0.1,0l-0.1,0l-0.1,0l-0.1,0
					l-0.1,0l-0.1,0l0.2-1.2l0.1,0l0.1,0l0.1,0l0.1,0l0.1,0l0.1,0l0.1,0l0.1,0l0.1,0l0.1,0l0.1,0l0.2,0l0.2,0l0.2,0H17l0.2,0l0.2,0
					l0.1,0l0.1-0.1l0.1-0.1l0.1-0.1l0-0.1l0-0.1l0-0.1l0-0.2l0-0.1l-0.1-0.1l-0.1-0.1l-0.2-0.1l-0.2-0.1L16.9,18l-0.2-0.1l-0.2-0.1
					l-0.2-0.1l-0.2-0.1l-0.2-0.2l-0.1-0.2l-0.1-0.2l0-0.3l0-0.4l0-0.2l0-0.2l0.1-0.2l0.1-0.2l0.1-0.2l0.1-0.1l0.1-0.1l0.1-0.1
					l0.2-0.1l0.2-0.1l0.2-0.1l0.2-0.1l0.2,0l0.3,0l0.3,0l0.3,0h0.2l0.2,0l0.2,0l0.2,0l0.1,0l0.1,0l0.1,0l0.1,0l0.1,0l0.1,0l0.1,0
					l0.1,0l0.1,0l0,0l0,0l0,0L19.6,15.9"/>
				<path id="Stroke-19" class="st3" d="M19.6,15.9L19.6,15.9L19.6,15.9l-0.2,0l-0.1,0l-0.1,0l-0.1,0l-0.1,0l-0.1,0l-0.1,0l-0.1,0
					l-0.1,0l-0.1,0l-0.1,0h-0.1l-0.1,0l-0.1,0l-0.2,0l-0.1,0l-0.1,0l-0.1,0l-0.1,0l-0.1,0l-0.1,0l-0.1,0.1l0,0.1l0,0.1l0,0.1v0.1
					l0,0.1l0,0.1l0,0.1l0.1,0.1l0.1,0.1l0.1,0.1l0.2,0.1l0.2,0.1l0.2,0.1l0.2,0.1l0.2,0.1l0.2,0.1l0.2,0.1l0.2,0.1l0.1,0.1l0.1,0.2
					l0.1,0.2l0.1,0.2l0,0.3l0,0.3l0,0.3l-0.1,0.2l-0.1,0.2l-0.1,0.2l-0.1,0.2L18.9,20l-0.2,0.1l-0.2,0.1l-0.2,0.1l-0.2,0.1l-0.2,0.1
					l-0.2,0l-0.2,0l-0.2,0l-0.2,0l-0.2,0h-0.2l-0.2,0h-0.2l-0.2,0l-0.2,0l-0.1,0l-0.1,0l-0.1,0l-0.1,0l-0.1,0l-0.1,0l-0.1,0l-0.1,0
					l-0.1,0l-0.1,0l-0.1,0l0.2-1.2l0.1,0l0.1,0l0.1,0l0.1,0l0.1,0l0.1,0l0.1,0l0.1,0l0.1,0l0.1,0l0.1,0l0.2,0l0.2,0l0.2,0H17l0.2,0
					l0.2,0l0.1,0l0.1-0.1l0.1-0.1l0.1-0.1l0-0.1l0-0.1l0-0.1l0-0.2l0-0.1l-0.1-0.1l-0.1-0.1l-0.2-0.1l-0.2-0.1L16.9,18l-0.2-0.1
					l-0.2-0.1l-0.2-0.1l-0.2-0.1l-0.2-0.2l-0.1-0.2l-0.1-0.2l0-0.3l0-0.4l0-0.2l0-0.2l0.1-0.2l0.1-0.2l0.1-0.2l0.1-0.1l0.1-0.1
					l0.1-0.1l0.2-0.1l0.2-0.1l0.2-0.1l0.2-0.1l0.2,0l0.3,0l0.3,0l0.3,0h0.2l0.2,0l0.2,0l0.2,0l0.1,0l0.1,0l0.1,0l0.1,0l0.1,0l0.1,0
					l0.1,0l0.1,0l0.1,0l0,0l0,0l0,0L19.6,15.9"/>
				<path id="Fill-20" class="st2" d="M20.9,13.2h1.5l-0.2,1.3h0.9l-0.2,1.2l-1,0l-0.5,3.1l0,0.1l0,0.1l0.1,0.1l0.1,0.1l0.1,0l0.1,0
					l0.1,0l0.1,0l0.1,0l0.1,0l0.1,0l0.1,0l0.1,0l0,0l0,0l0,0l-0.2,1l0,0l0,0l0,0l0,0l0,0l0,0l0,0l0,0l-0.1,0l-0.1,0l-0.1,0l-0.1,0
					l-0.1,0l-0.1,0l-0.1,0l-0.1,0h-0.4l-0.2,0l-0.2,0l-0.2,0l-0.1,0l-0.1,0l-0.1-0.1L20,20.2l-0.1-0.1l-0.1-0.1l0-0.1l0-0.1l0-0.1
					l0-0.1v-0.1l0-0.1l0-0.1L20.9,13.2"/>
				<path id="Stroke-21" class="st3" d="M20.9,13.2h1.5l-0.2,1.3h0.9l-0.2,1.2l-1,0l-0.5,3.1l0,0.1l0,0.1l0.1,0.1l0.1,0.1l0.1,0
					l0.1,0l0.1,0l0.1,0l0.1,0l0.1,0l0.1,0l0.1,0l0.1,0l0,0l0,0l0,0l-0.2,1l0,0l0,0l0,0l0,0l0,0l0,0l0,0l0,0l-0.1,0l-0.1,0l-0.1,0
					l-0.1,0l-0.1,0l-0.1,0l-0.1,0l-0.1,0h-0.4l-0.2,0l-0.2,0l-0.2,0l-0.1,0l-0.1,0l-0.1-0.1L20,20.2l-0.1-0.1l-0.1-0.1l0-0.1l0-0.1
					l0-0.1l0-0.1v-0.1l0-0.1l0-0.1L20.9,13.2"/>
				<path id="Fill-22" class="st2" d="M24.3,17.9L24.3,17.9l0,0.2l0,0.1l0,0.1l0,0.1l0,0.1l0.1,0.1l0.1,0.1l0.1,0.1l0.1,0.1l0.1,0.1
					l0.1,0.1l0.1,0.1l0.1,0l0.1,0l0.1,0l0.1,0l0.1,0l0.1,0l0.1,0l0.1,0h0.1l0.1,0l0.1,0l0.1,0l0.1,0l0.2,0l0.1,0l0.2-0.1l0.2-0.1
					l0.2-0.1l0.2-0.1l-0.2,1.4l-0.1,0l-0.1,0l-0.1,0l-0.1,0l-0.1,0l-0.1,0l-0.1,0l-0.1,0l-0.1,0l-0.1,0l-0.1,0l-0.1,0l-0.1,0h-0.1
					l-0.2,0h-0.2l-0.3,0l-0.3,0l-0.3,0l-0.3-0.1l-0.3-0.1l-0.3-0.1L23.8,20l-0.2-0.2l-0.2-0.2l-0.2-0.2L23,19.2l-0.1-0.3l-0.1-0.3
					l-0.1-0.4l0-0.4l0-0.5l0-0.2l0-0.2l0-0.2l0.1-0.2l0.1-0.2l0.1-0.2l0.1-0.2l0.2-0.2l0.2-0.2l0.2-0.2L24,15l0.3-0.2l0.3-0.1
					l0.4-0.1l0.4-0.1l0.4,0l0.2,0l0.2,0l0.2,0l0.2,0.1l0.2,0.1l0.2,0.1l0.2,0.1l0.2,0.2l0.2,0.2l0.1,0.2l0.1,0.3L28,16l0,0.3l0,0.4
					l0,0.4l-0.1,0.5l0,0.3h-4l0.3-1.1h2.4l0-0.1l0-0.1l0-0.1l0-0.1l0-0.1l0-0.1l-0.1-0.1L26.3,16l-0.1-0.1l-0.1-0.1l-0.1,0l-0.1,0
					l-0.1,0l-0.1,0l-0.1,0l-0.1,0l-0.1,0l-0.1,0l-0.1,0l-0.1,0l-0.1,0l-0.1,0.1L25,15.9L25,16l-0.1,0.1l-0.1,0.1l-0.1,0.1l0,0.1
					l-0.1,0.1l0,0.1l0,0.1l0,0.1L24.3,17.9"/>
				<path id="Stroke-23" class="st3" d="M24.3,17.9L24.3,17.9L24.3,17.9l0,0.2l0,0.1l0,0.1l0,0.1l0,0.1l0.1,0.1l0.1,0.1l0.1,0.1
					l0.1,0.1l0.1,0.1l0.1,0.1l0.1,0.1l0.1,0l0.1,0l0.1,0l0.1,0l0.1,0l0.1,0l0.1,0l0.1,0h0.1l0.1,0l0.1,0l0.1,0l0.1,0l0.2,0l0.1,0
					l0.2-0.1l0.2-0.1l0.2-0.1l0.2-0.1l-0.2,1.4l-0.1,0l-0.1,0l-0.1,0l-0.1,0l-0.1,0l-0.1,0l-0.1,0l-0.1,0l-0.1,0l-0.1,0l-0.1,0
					l-0.1,0l-0.1,0h-0.1l-0.2,0h-0.2l-0.3,0l-0.3,0l-0.3,0l-0.3-0.1l-0.3-0.1l-0.3-0.1L23.8,20l-0.2-0.2l-0.2-0.2l-0.2-0.2L23,19.2
					l-0.1-0.3l-0.1-0.3l-0.1-0.4l0-0.4l0-0.5l0-0.2l0-0.2l0-0.2l0.1-0.2l0.1-0.2l0.1-0.2l0.1-0.2l0.2-0.2l0.2-0.2l0.2-0.2L24,15
					l0.3-0.2l0.3-0.1l0.4-0.1l0.4-0.1l0.4,0l0.2,0l0.2,0l0.2,0l0.2,0.1l0.2,0.1l0.2,0.1l0.2,0.1l0.2,0.2l0.2,0.2l0.1,0.2l0.1,0.3
					L28,16l0,0.3l0,0.4l0,0.4l-0.1,0.5l0,0.3h-4l0.3-1.1h2.4l0-0.1l0-0.1l0-0.1l0-0.1l0-0.1l0-0.1l-0.1-0.1L26.3,16l-0.1-0.1
					l-0.1-0.1l-0.1,0l-0.1,0l-0.1,0l-0.1,0l-0.1,0l-0.1,0l-0.1,0l-0.1,0l-0.1,0l-0.1,0l-0.1,0l-0.1,0.1L25,15.9L25,16l-0.1,0.1
					l-0.1,0.1l-0.1,0.1l0,0.1l-0.1,0.1l0,0.1l0,0.1l0,0.1L24.3,17.9"/>
				<path id="Fill-24" class="st2" d="M37.5,14.9L37.5,14.9l-0.1-0.1l-0.1,0l-0.1,0l-0.1,0l-0.1,0l-0.1,0l-0.1,0l-0.1,0l-0.1,0
					l-0.1,0l-0.1,0l-0.1,0l-0.1,0h-0.4l-0.1,0l-0.1,0l-0.2,0l-0.2,0L35,14.7l-0.2,0.1l-0.2,0.1L34.5,15l-0.1,0.1l-0.1,0.2l-0.1,0.2
					L34,15.7L33.9,16l-0.1,0.3l-0.1,0.4l0,0.2l0,0.2l0,0.2l0,0.2l0,0.2l0,0.2l0,0.2l0.1,0.2l0.1,0.1l0.1,0.1l0.1,0.1l0.1,0.1
					l0.1,0.1l0.2,0.1l0.2,0.1l0.2,0l0.1,0l0.1,0l0.1,0l0.1,0l0.1,0h0.3l0.1,0l0.1,0l0.1,0l0.1,0l0.1,0l0.1-0.1l0.1-0.1l0.1-0.1
					l0.1-0.1l-0.2,1.5l0,0l0,0l0,0l0,0l-0.1,0l-0.1,0l-0.1,0l-0.1,0l-0.1,0l-0.1,0l-0.2,0l-0.2,0l-0.2,0l-0.2,0l-0.3,0l-0.3,0
					l-0.3,0l-0.3-0.1l-0.3-0.1l-0.3-0.1l-0.2-0.1L33,19.9l-0.2-0.2l-0.2-0.2l-0.2-0.2L32.2,19l-0.1-0.3L32,18.3l-0.1-0.4l0-0.4
					l0-0.4l0.1-0.5l0-0.2l0-0.2l0.1-0.2l0.1-0.2l0.1-0.2l0.1-0.2l0.1-0.2l0.1-0.2l0.1-0.2l0.1-0.2l0.1-0.2l0.1-0.1l0.1-0.1l0.1-0.1
					l0.1-0.1l0.1-0.1l0.1-0.1l0.1-0.1l0.1-0.1l0.1-0.1l0.1-0.1l0.1-0.1l0.2-0.1l0.2-0.1l0.2-0.1l0.2,0l0.2,0l0.2,0l0.2,0l0.2,0
					l0.2,0l0.2,0l0.2,0l0.2,0l0.2,0l0.2,0l0.2,0l0.1,0l0.1,0l0.1,0l0.1,0l0.1,0l0.1,0l0.1,0l0.1,0l0.1,0l0.1,0l0,0L37.5,14.9"/>
				<path id="Stroke-25" class="st3" d="M37.5,14.9L37.5,14.9L37.5,14.9l-0.1-0.1l-0.1,0l-0.1,0l-0.1,0l-0.1,0l-0.1,0l-0.1,0l-0.1,0
					l-0.1,0l-0.1,0l-0.1,0l-0.1,0l-0.1,0h-0.4l-0.1,0l-0.1,0l-0.2,0l-0.2,0L35,14.7l-0.2,0.1l-0.2,0.1L34.5,15l-0.1,0.1l-0.1,0.2
					l-0.1,0.2L34,15.7L33.9,16l-0.1,0.3l-0.1,0.4l0,0.2l0,0.2l0,0.2l0,0.2l0,0.2l0,0.2l0,0.2l0.1,0.2l0.1,0.1l0.1,0.1l0.1,0.1
					l0.1,0.1l0.1,0.1l0.2,0.1l0.2,0.1l0.2,0l0.1,0l0.1,0l0.1,0l0.1,0l0.1,0h0.3l0.1,0l0.1,0l0.1,0l0.1,0l0.1,0l0.1-0.1l0.1-0.1
					l0.1-0.1l0.1-0.1l-0.2,1.5l0,0l0,0l0,0l0,0l-0.1,0l-0.1,0l-0.1,0l-0.1,0l-0.1,0l-0.1,0l-0.2,0l-0.2,0l-0.2,0l-0.2,0l-0.3,0
					l-0.3,0l-0.3,0l-0.3-0.1l-0.3-0.1l-0.3-0.1l-0.2-0.1L33,19.9l-0.2-0.2l-0.2-0.2l-0.2-0.2L32.2,19l-0.1-0.3L32,18.3l-0.1-0.4
					l0-0.4l0-0.4l0.1-0.5l0-0.2l0-0.2l0.1-0.2l0.1-0.2l0.1-0.2l0.1-0.2l0.1-0.2l0.1-0.2l0.1-0.2l0.1-0.2l0.1-0.2l0.1-0.1l0.1-0.1
					l0.1-0.1l0.1-0.1l0.1-0.1l0.1-0.1l0.1-0.1l0.1-0.1l0.1-0.1l0.1-0.1l0.1-0.1l0.2-0.1l0.2-0.1l0.2-0.1l0.2,0l0.2,0l0.2,0l0.2,0
					l0.2,0l0.2,0l0.2,0l0.2,0l0.2,0l0.2,0l0.2,0l0.2,0l0.1,0l0.1,0l0.1,0l0.1,0l0.1,0l0.1,0l0.1,0l0.1,0l0.1,0l0.1,0l0,0L37.5,14.9"
					/>
				<path id="Fill-26" class="st2" d="M51.1,20.5h-1.5l0.1-0.6v-0.1l-0.1,0.1L49.5,20l-0.1,0.1l-0.1,0.1l-0.1,0.1l-0.1,0.1l-0.1,0
					l-0.1,0l-0.1,0l-0.2,0.1l-0.1,0l-0.1,0l-0.1,0l-0.1,0h-0.1l-0.3,0l-0.3-0.1l-0.2-0.1L47,20.3l-0.2-0.2l-0.2-0.2l-0.2-0.2
					l-0.1-0.2l-0.1-0.2L46.2,19l-0.1-0.3l0-0.3l0-0.3l0-0.3l0-0.3l0-0.3l0.1-0.3l0.1-0.3l0.1-0.3l0.1-0.3l0.1-0.2l0.2-0.2l0.2-0.2
					l0.2-0.2l0.2-0.2l0.2-0.1l0.2-0.1l0.2-0.1l0.2-0.1l0.2,0l0.2,0l0.2,0l0.2,0l0.2,0l0.1,0l0.1,0l0.1,0l0.1,0l0.1,0.1l0.1,0.1
					l0.1,0.1l0.1,0.1l0.1,0.1l0.1,0.1l0.1,0.1l0,0.1l0,0.1l0,0.1l0.4-2.2h1.5L51.1,20.5"/>
				<path id="Stroke-27" class="st3" d="M51.1,20.5h-1.5l0.1-0.6v-0.1l-0.1,0.1L49.5,20l-0.1,0.1l-0.1,0.1l-0.1,0.1l-0.1,0.1l-0.1,0
					l-0.1,0l-0.1,0l-0.2,0.1l-0.1,0l-0.1,0l-0.1,0l-0.1,0h-0.1l-0.3,0l-0.3-0.1l-0.2-0.1L47,20.3l-0.2-0.2l-0.2-0.2l-0.2-0.2
					l-0.1-0.2l-0.1-0.2L46.2,19l-0.1-0.3l0-0.3l0-0.3l0-0.3l0-0.3l0-0.3l0.1-0.3l0.1-0.3l0.1-0.3l0.1-0.3l0.1-0.2l0.2-0.2l0.2-0.2
					l0.2-0.2l0.2-0.2l0.2-0.1l0.2-0.1l0.2-0.1l0.2-0.1l0.2,0l0.2,0l0.2,0l0.2,0l0.2,0l0.1,0l0.1,0l0.1,0l0.1,0l0.1,0.1l0.1,0.1
					l0.1,0.1l0.1,0.1l0.1,0.1l0.1,0.1l0.1,0.1l0,0.1l0,0.1l0,0.1l0.4-2.2h1.5L51.1,20.5"/>
				<path id="Fill-28" class="st0" d="M48.6,19.2l0.2,0l0.1,0l0.1,0l0.1-0.1l0.1-0.1l0.1-0.1l0.1-0.1l0.1-0.1l0.1-0.1l0.1-0.1
					l0.1-0.1l0.1-0.1l0.1-0.1l0-0.1l0-0.1l0-0.1l0-0.2l0-0.2v-0.1l0-0.2l0-0.1l0-0.1l0-0.1l0-0.1l-0.1-0.1l-0.1-0.1l-0.1-0.1
					l-0.1-0.1L49.6,16l-0.1,0l-0.1,0l-0.1,0l-0.1,0l-0.1,0l-0.1,0L48.7,16l-0.1,0.1l-0.1,0.1l-0.1,0.1l-0.1,0.1l-0.1,0.1l-0.1,0.1
					l-0.1,0.1L48,16.9L48,17.1l0,0.1l0,0.2l0,0.2l0,0.2l0,0.3l0,0.3l0.1,0.3l0.1,0.2l0.1,0.2l0.2,0.1L48.6,19.2"/>
				<path id="Fill-29" class="st2" d="M14.7,19.3l-0.2,1.2h-1.4l0-0.2l0-0.2l0-0.2l0-0.1l-0.1,0.1L13,20l-0.1,0.1l-0.1,0.1l-0.1,0.1
					l-0.1,0.1l-0.1,0.1l-0.1,0.1l-0.2,0l-0.2,0l-0.2,0l-0.2,0l-0.2,0l-0.2,0l-0.2,0l-0.1,0l-0.2,0l-0.2-0.1l-0.2-0.1l-0.1-0.1
					l-0.1-0.1l-0.1-0.1L10,20l-0.1-0.1l-0.1-0.1l-0.1-0.1l0-0.1l0-0.1l0-0.1l0-0.1l0-0.1v-0.1l0-0.2l0-0.2l0.1-0.2l0.1-0.2l0.1-0.2
					l0.1-0.2l0.1-0.2l0.1-0.1l0.1-0.1l0.2-0.1l0.2-0.1l0.2-0.1l0.2-0.1l0.2-0.1l0.2,0l0.2,0h0l0,0l0,0l0.1,0l0.1,0l0.1,0l0.1,0
					l0.1,0l0.1,0l0.1,0l0.1,0l0.1,0l0.1,0l0.1,0l0.1,0h0.2l0.1,0l0.1,0h0.1l0.1,0l0.1,0l0.1,0h0l0,0l0-0.1l0-0.1l0-0.1l0-0.1l0-0.1
					L13.5,16L13.4,16l-0.1-0.1l-0.1,0l-0.1,0l-0.1,0l-0.2,0l-0.2,0h-0.2l-0.2,0l-0.2,0l-0.2,0l-0.2,0l-0.2,0l-0.2,0l-0.2,0l-0.1,0
					l-0.1,0l-0.1,0l-0.1,0l-0.1,0l-0.1,0l0.4-1.3l0.1,0l0.1,0l0.1,0l0.1,0l0.1,0l0.1,0l0.1,0l0.1,0l0.2,0l0.2,0l0.2,0H13l0.2,0
					l0.2,0l0.2,0l0.2,0l0.2,0l0.2,0l0.2,0.1l0.2,0.1l0.2,0.1l0.2,0.1l0.1,0.1l0.1,0.1l0.1,0.1l0.1,0.2l0.1,0.2l0,0.2v0.2l0,0.2
					L14.7,19.3"/>
				<path id="Stroke-30" class="st3" d="M14.7,19.3l-0.2,1.2h-1.4l0-0.2l0-0.2l0-0.2l0-0.1l-0.1,0.1L13,20l-0.1,0.1l-0.1,0.1
					l-0.1,0.1l-0.1,0.1l-0.1,0.1l-0.1,0.1l-0.2,0l-0.2,0l-0.2,0l-0.2,0l-0.2,0l-0.2,0l-0.2,0l-0.1,0l-0.2,0l-0.2-0.1l-0.2-0.1
					l-0.1-0.1l-0.1-0.1l-0.1-0.1L10,20l-0.1-0.1l-0.1-0.1l-0.1-0.1l0-0.1l0-0.1l0-0.1l0-0.1l0-0.1v-0.1l0-0.2l0-0.2l0.1-0.2l0.1-0.2
					l0.1-0.2l0.1-0.2l0.1-0.2l0.1-0.1l0.1-0.1l0.2-0.1l0.2-0.1l0.2-0.1l0.2-0.1l0.2-0.1l0.2,0l0.2,0h0l0,0l0,0l0.1,0l0.1,0l0.1,0
					l0.1,0l0.1,0l0.1,0l0.1,0l0.1,0l0.1,0l0.1,0l0.1,0l0.1,0h0.2l0.1,0l0.1,0h0.1l0.1,0l0.1,0l0.1,0h0l0,0l0-0.1l0-0.1l0-0.1l0-0.1
					l0-0.1L13.5,16L13.4,16l-0.1-0.1l-0.1,0l-0.1,0l-0.1,0l-0.2,0l-0.2,0h-0.2l-0.2,0l-0.2,0l-0.2,0l-0.2,0l-0.2,0l-0.2,0l-0.2,0
					l-0.1,0l-0.1,0l-0.1,0l-0.1,0l-0.1,0l-0.1,0l0.4-1.3l0.1,0l0.1,0l0.1,0l0.1,0l0.1,0l0.1,0l0.1,0l0.1,0l0.2,0l0.2,0l0.2,0H13
					l0.2,0l0.2,0l0.2,0l0.2,0l0.2,0l0.2,0l0.2,0.1l0.2,0.1l0.2,0.1l0.2,0.1l0.1,0.1l0.1,0.1l0.1,0.1l0.1,0.2l0.1,0.2l0,0.2v0.2
					l0,0.2L14.7,19.3"/>
				<path id="Fill-31" class="st1" d="M13.4,17.8L13.4,17.8L13.4,17.8L13.4,17.8l-0.1-0.1l-0.1,0l-0.1,0h-0.2l-0.1,0l-0.1,0l-0.1,0
					l-0.1,0l-0.1,0l-0.1,0l-0.1,0l-0.1,0l0,0l0,0l-0.1,0l-0.1,0l-0.1,0l-0.1,0l-0.1,0l-0.1,0l-0.1,0.1l-0.1,0.1l-0.1,0.1l-0.1,0.1
					l-0.1,0.1l0,0.1l0,0.1l0,0.1l0,0.2l0,0.1l0.1,0.1l0.1,0.1l0.1,0.1l0.1,0l0.1,0l0.1,0l0.2,0l0.1,0l0.1,0l0.1,0l0.1,0l0.1,0l0.1,0
					l0.1-0.1l0.1-0.1l0.1-0.1l0.1-0.1l0-0.1l0-0.1l0-0.1l0-0.1l0-0.1l0-0.2l0-0.2l0-0.2L13.4,17.8"/>
				<path id="Fill-32" class="st2" d="M3.1,20.5H1.6l1.3-7.3h2.6l0.2,4.3l1.8-4.3h2.7l-1.3,7.3H7.4l1-5.4H8.3l-2.2,5.4H4.4l0-0.2
					l0-0.6l0-0.9l-0.1-2l0-0.9l0-0.6l0-0.3H4L3.1,20.5"/>
				<path id="Stroke-33" class="st3" d="M3.1,20.5H1.6l1.3-7.3h2.6l0.2,4.3l1.8-4.3h2.7l-1.3,7.3H7.4l1-5.4H8.3l-2.2,5.4H4.4l0-0.2
					l0-0.6l0-0.9l-0.1-2l0-0.9l0-0.6l0-0.3H4L3.1,20.5"/>
				<path id="Fill-34" class="st2" d="M42.1,19.3l-0.2,1.2h-1.4l0-0.2l0-0.2v-0.1l0-0.1l-0.1,0.1L40.4,20l-0.1,0.1l-0.1,0.1L40,20.2
					l-0.1,0.1l-0.1,0.1l-0.1,0.1l-0.1,0l-0.2,0l-0.2,0l-0.2,0l-0.2,0l-0.2,0l-0.1,0l-0.1,0l-0.2,0L38,20.4l-0.2-0.1l-0.1-0.1
					l-0.1-0.1l-0.1-0.1L37.4,20l-0.1-0.1l-0.1-0.1l0-0.1l0-0.1l0-0.1l0-0.1l0-0.1l0-0.1v-0.1l0-0.2l0-0.2l0-0.2l0.1-0.2l0.1-0.2
					l0.1-0.2l0.1-0.2l0.1-0.1l0.1-0.1l0.1-0.1l0.2-0.1l0.2-0.1l0.2-0.1l0.2-0.1l0.2,0l0.2,0h0l0,0l0,0l0.1,0l0.1,0l0.1,0l0.1,0
					l0.1,0l0.1,0l0.1,0l0.1,0l0.1,0l0.1,0l0.1,0l0.1,0h0.2l0.1,0l0.1,0h0.1l0.1,0l0.1,0l0,0h0l0,0l0-0.1l0-0.1l0-0.1l0-0.1l0-0.1
					L40.9,16L40.8,16l-0.1-0.1l-0.1,0l-0.1,0l-0.1,0l-0.2,0l-0.2,0h-0.2l-0.2,0l-0.2,0l-0.2,0l-0.2,0l-0.2,0l-0.2,0l-0.2,0l-0.1,0
					l-0.1,0l-0.1,0l-0.1,0l-0.1,0l-0.1,0l0.4-1.3l0.1,0l0.1,0l0.1,0l0.1,0l0.1,0l0.1,0l0.1,0l0.1,0l0.2,0l0.2,0l0.2,0h0.5l0.2,0
					l0.2,0l0.2,0l0.2,0l0.2,0l0.2,0l0.2,0.1l0.2,0.1l0.2,0.1l0.2,0.1l0.1,0.1l0.1,0.1l0.1,0.1l0.1,0.2l0.1,0.2l0,0.2v0.2l0,0.2
					L42.1,19.3"/>
				<path id="Fill-35" class="st2" d="M41.9,20.5L41.9,20.5l0.3-1.3l-0.1,0L41.9,20.5L41.9,20.5L41.9,20.5L41.9,20.5L41.9,20.5
					L41.9,20.5"/>
				<path id="Fill-36" class="st2" d="M40.5,20.5L40.5,20.5l1.4,0v-0.1L40.5,20.5L40.5,20.5L40.5,20.5L40.5,20.5L40.5,20.5
					L40.5,20.5"/>
				<path id="Fill-37" class="st2" d="M40.5,19.9L40.5,19.9L40.5,19.9l-0.1,0.2v0.2l0,0.2h0.1l0-0.2l0-0.2V19.9L40.5,19.9L40.5,19.9
					L40.5,19.9"/>
				<path id="Fill-38" class="st2" d="M38.4,20.6L38.4,20.6l0.2,0l0.1,0l0.2,0l0.2,0l0.2,0l0.2,0l0.2,0l0.2,0l0.1-0.1l0.1-0.1
					l0.1-0.1l0.1-0.1l0.1-0.1l0.1-0.1l0.1-0.1l0.1-0.1l-0.1,0l-0.1,0.1L40.3,20l-0.1,0.1l-0.1,0.1L40,20.2l-0.1,0.1l-0.1,0.1
					l-0.1,0.1l-0.1,0l-0.2,0l-0.2,0l-0.1,0l-0.2,0l-0.2,0l-0.1,0L38.4,20.6L38.4,20.6"/>
				<path id="Fill-39" class="st2" d="M37.1,18.9L37.1,18.9l0,0.1l0,0.1l0,0.1l0,0.1l0,0.1l0,0.1l0.1,0.1l0.1,0.1l0.1,0.1l0.1,0.1
					l0.1,0.1l0.1,0.1l0.1,0.1l0.2,0.1l0.2,0.1l0.2,0l0-0.1l-0.2,0L38,20.4l-0.1-0.1l-0.1-0.1l-0.1-0.1l-0.1-0.1L37.4,20l-0.1-0.1
					l-0.1-0.1l0-0.1l0-0.1l0-0.1l0-0.1l0-0.1l0-0.1L37.1,18.9L37.1,18.9"/>
				<path id="Fill-40" class="st2" d="M39,16.8L39,16.8l-0.2,0l-0.2,0l-0.2,0.1L38.3,17l-0.2,0.1L38,17.2l-0.1,0.1l-0.1,0.1
					l-0.1,0.1l-0.1,0.2l-0.1,0.2l-0.1,0.2l-0.1,0.2l0,0.2l0,0.2l0,0.2h0.1l0-0.2l0-0.2l0-0.2l0.1-0.2l0.1-0.2l0.1-0.2l0.1-0.2
					l0.1-0.1l0.1-0.1l0.1-0.1l0.2-0.1l0.2-0.1l0.2-0.1l0.2-0.1l0.2,0L39,16.8L39,16.8"/>
				<path id="Fill-41" class="st2" d="M40.2,16.7L40.2,16.7l-0.1,0l-0.1,0l-0.1,0l-0.1,0l-0.1,0l-0.1,0l-0.1,0l-0.1,0l-0.1,0l-0.1,0
					l-0.1,0l-0.1,0l0,0l0,0h0v0.1h0l0,0l0,0l0.1,0l0.1,0l0.1,0l0.1,0l0.1,0l0.1,0l0.1,0l0.1,0l0.1,0l0.1,0l0.1,0L40.2,16.7
					L40.2,16.7"/>
				<path id="Fill-42" class="st2" d="M40.9,16.7L40.9,16.7L40.9,16.7L40.9,16.7l-0.1,0l-0.1,0h-0.2l-0.1,0h-0.1v0.1h0.3l0.1,0h0.2
					L40.9,16.7L40.9,16.7L40.9,16.7L40.9,16.7L40.9,16.7L40.9,16.7L40.9,16.7L40.9,16.7"/>
				<path id="Fill-43" class="st2" d="M41,16.4L41,16.4l0,0.1l0,0.1l0,0.1l0,0l0.1,0l0,0l0-0.1l0-0.1L41,16.4L41,16.4"/>
				<path id="Fill-44" class="st2" d="M40.3,15.8L40.3,15.8l0.1,0l0.1,0l0.1,0l0.1,0.1l0.1,0.1l0.1,0.1l0,0.1l0,0.1h0.1l0-0.1l0-0.1
					L40.9,16l-0.1-0.1l-0.1-0.1l-0.1-0.1l-0.1,0L40.3,15.8L40.3,15.8"/>
				<path id="Fill-45" class="st2" d="M38,16.1L38,16.1l0.1,0l0.1,0l0.1,0l0.1,0l0.1,0l0.1,0l0.2,0l0.2,0l0.2,0l0.2,0l0.2,0l0.2,0
					h0.5l0.2,0v-0.1l-0.2,0l-0.2,0h-0.2l-0.2,0l-0.2,0l-0.2,0l-0.2,0l-0.2,0l-0.2,0l-0.2,0l-0.1,0l-0.1,0l-0.1,0l-0.1,0L38,16.1
					L38,16.1L38,16.1L38,16.1"/>
				<path id="Fill-46" class="st2" d="M38.4,14.7L38.4,14.7L38,16.1l0.1,0L38.4,14.7L38.4,14.7L38.4,14.7L38.4,14.7L38.4,14.7
					L38.4,14.7"/>
				<path id="Fill-47" class="st2" d="M40.8,14.5L40.8,14.5l-0.2,0l-0.2,0h-0.5l-0.2,0l-0.2,0l-0.2,0l-0.1,0l-0.1,0l-0.1,0l-0.1,0
					l-0.1,0l-0.1,0l-0.1,0l-0.1,0.1l0,0.1l0.1,0l0.1,0l0.1,0l0.1,0l0.1,0l0.1,0l0.1,0l0.1,0l0.2,0l0.2,0h0.7l0.2,0L40.8,14.5
					L40.8,14.5"/>
				<path id="Fill-48" class="st2" d="M42.7,16.4L42.7,16.4l0-0.2v-0.2l0-0.2l-0.1-0.2l-0.1-0.2l-0.1-0.2l-0.1-0.1L42.2,15L42,14.9
					l-0.2-0.1l-0.2-0.1l-0.2-0.1l-0.2,0l-0.2,0l-0.2,0l-0.2,0v0.1l0.2,0l0.2,0l0.2,0l0.2,0l0.2,0.1l0.2,0.1l0.2,0.1l0.1,0.1l0.1,0.1
					l0.1,0.1l0.1,0.1l0.1,0.2l0.1,0.2l0,0.2v0.2L42.7,16.4L42.7,16.4"/>
				<path id="Fill-49" class="st2" d="M42.1,19.3L42.1,19.3l0.6-2.9l-0.1,0L42.1,19.3L42.1,19.3"/>
				<path id="Fill-50" class="st0" d="M40.8,17.8L40.8,17.8L40.8,17.8L40.8,17.8l-0.1-0.1l-0.1,0l-0.1,0h-0.1l-0.1,0l-0.1,0l-0.1,0
					l-0.1,0l-0.1,0l-0.1,0l-0.1,0l-0.1,0l-0.1,0l0,0l0,0l-0.1,0l-0.1,0l-0.1,0l-0.1,0l-0.1,0l-0.1,0.1l-0.1,0.1L39,18.2L39,18.3
					l0,0.1l0,0.1l0,0.1l0,0.1l0,0.2l0,0.1l0,0.1l0.1,0.1l0.1,0.1l0.1,0l0.1,0l0.1,0l0.2,0l0.2,0l0.1,0l0.1,0l0.1,0l0.1,0l0.1-0.1
					l0.1-0.1l0.1-0.1l0.1-0.1l0.1-0.1l0-0.1l0-0.1l0-0.1l0-0.1l0-0.1l0-0.2l0-0.2l0-0.2L40.8,17.8"/>
				<path id="Fill-51" class="st2" d="M52.2,19.7l0-0.1l0-0.1l0.1-0.1l0.1-0.1l0.1-0.1l0.1-0.1l0.1,0l0.2,0l0.2,0l0.1,0l0.1,0.1
					l0.1,0.1l0.1,0.1l0.1,0.1l0,0.1l0,0.1h-0.2l0-0.1l0-0.1l-0.1-0.1l-0.1-0.1l-0.1-0.1l-0.1-0.1l-0.1,0l-0.1,0l-0.1,0l-0.1,0
					l-0.1,0.1l-0.1,0.1l-0.1,0.1l-0.1,0.1l0,0.1l0,0.1H52.2"/>
				<path id="Fill-52" class="st2" d="M52.6,19.7v-0.3H53l0.1,0l0.1,0l0,0l0,0l0,0l0,0l0,0l0,0l0,0l0,0l0,0l0,0H53l0,0l0,0l0,0l0,0
					l0,0l0,0l0,0v0l0,0l0,0l0,0l0,0l0,0l0,0h-0.2v0.2H52.6"/>
				<path id="Fill-53" class="st2" d="M52.2,19.7L52.2,19.7l0,0.2l0,0.1l0.1,0.1l0.1,0.1l0.1,0.1l0.1,0.1l0.1,0l0.2,0l0.2,0l0.1,0
					l0.1-0.1l0.1-0.1l0.1-0.1l0.1-0.1l0-0.1l0-0.2l0,0h-0.2l0,0l0,0.1l0,0.1l-0.1,0.1l-0.1,0.1l-0.1,0.1l-0.1,0.1l-0.1,0l-0.1,0
					l-0.1,0l-0.1,0l-0.1-0.1l-0.1-0.1l-0.1-0.1L52.4,20l0-0.1l0-0.1v0H52.2"/>
				<path id="Fill-54" class="st2" d="M52.6,19.7v0.3h0.1v-0.3h0.1l0.2,0.3h0.1L53,19.8h0l0,0l0,0l0,0l0,0H53l0,0h-0.1v0H52.6"/>
				<path id="Stroke-55" class="st3" d="M52.9,20.4L52.9,20.4l0.1,0l0.1,0l0.1-0.1l0.1-0.1l0.1-0.1l0.1-0.1l0-0.1l0-0.1l0-0.1l0-0.1
					l-0.1-0.1l-0.1-0.1l-0.1-0.1l-0.1-0.1l-0.1,0l-0.1,0l-0.1,0l-0.1,0l-0.1,0.1l-0.1,0.1l-0.1,0.1l-0.1,0.1l0,0.1l0,0.1l0,0.1
					l0,0.1l0.1,0.1l0.1,0.1l0.1,0.1l0.1,0.1l0.1,0L52.9,20.4 M52.9,19.7L52.9,19.7L52.9,19.7L52.9,19.7l0.1,0l0,0l0,0l0,0l0,0v0l0,0
					l0,0l0,0l0,0l0,0l0,0h-0.2v0.2H52.9 M52.8,20.1h-0.1v-0.7H53l0.1,0l0.1,0l0,0l0,0l0,0l0,0l0,0l0,0l0,0l0,0l0,0l0,0l0,0l0,0l0,0
					h0l0.2,0.3h-0.1l-0.2-0.3h-0.1V20.1 M52.1,19.8L52.1,19.8l0-0.2l0-0.1l0.1-0.1l0.1-0.1l0.1-0.1l0.1-0.1l0.1,0l0.2,0l0.2,0l0.1,0
					l0.1,0.1l0.1,0.1l0.1,0.1l0.1,0.1l0,0.1l0,0.2l0,0.2l0,0.1l-0.1,0.1l-0.1,0.1l-0.1,0.1l-0.1,0.1l-0.1,0l-0.2,0l-0.2,0l-0.1,0
					l-0.1-0.1l-0.1-0.1l-0.1-0.1l-0.1-0.1l0-0.1L52.1,19.8"/>
				<path id="Fill-56" class="st2" d="M42.5,20.5h1.6l0.6-3.1l0-0.1l0-0.1l0-0.1l0-0.1l0.1-0.1l0.1-0.1l0.1-0.1l0.1-0.1l0.1-0.1
					l0.1-0.1l0.1-0.1l0.1-0.1l0.2-0.1l0.2,0l0.2,0l0.2,0h0.1l0.2-1.4l-0.2,0l-0.1,0l-0.1,0l-0.1,0l-0.1,0l-0.1,0.1l-0.1,0.1
					l-0.1,0.1l-0.1,0.1L45.4,15l-0.2,0.2l-0.1,0.1l-0.1,0.1L45,15.5l-0.1,0.1l0.2-1h-1.6L42.5,20.5"/>
				<path id="Stroke-57" class="st3" d="M42.5,20.5h1.6l0.6-3.1l0-0.1l0-0.1l0-0.1l0-0.1l0.1-0.1l0.1-0.1l0.1-0.1l0.1-0.1l0.1-0.1
					l0.1-0.1l0.1-0.1l0.1-0.1l0.2-0.1l0.2,0l0.2,0l0.2,0h0.1l0.2-1.4l-0.2,0l-0.1,0l-0.1,0l-0.1,0l-0.1,0l-0.1,0.1l-0.1,0.1
					l-0.1,0.1l-0.1,0.1L45.4,15l-0.2,0.2l-0.1,0.1l-0.1,0.1L45,15.5l-0.1,0.1l0.2-1h-1.6L42.5,20.5"/>
				<path id="Fill-58" class="st2" d="M27.9,20.5h1.6l0.5-3.1l0-0.1l0.1-0.2l0-0.1l0-0.1l0.1-0.1l0.1-0.1l0.1-0.1l0.1-0.1l0.1-0.1
					l0.1-0.1l0.1-0.1l0.2,0l0.2,0l0.2,0l0.2,0h0l0,0l0,0h0l0,0l0,0l0,0h0l0-0.1l0-0.1l0-0.1l0-0.1l0-0.2l0.1-0.3l0-0.1l0.1-0.1
					l0.1-0.1l0.1-0.1l0.1-0.1l0-0.1l0,0l0,0h0l0,0l0,0l0,0h0l0,0l0,0h0l-0.2,0l-0.2,0l-0.1,0l-0.1,0l-0.1,0l-0.1,0.1l-0.1,0.1
					L31,14.8l-0.1,0.1L30.8,15l-0.1,0.1l-0.1,0.1l-0.1,0.1l-0.1,0.1l-0.1,0.1l-0.1,0.1l0.2-1h-1.6L27.9,20.5"/>
				<path id="Stroke-59" class="st3" d="M27.9,20.5h1.6l0.5-3.1l0-0.1l0.1-0.2l0-0.1l0-0.1l0.1-0.1l0.1-0.1l0.1-0.1l0.1-0.1l0.1-0.1
					l0.1-0.1l0.1-0.1l0.2,0l0.2,0l0.2,0l0.2,0h0l0,0l0,0h0l0,0l0,0l0,0h0l0-0.1l0-0.1l0-0.1l0-0.1l0-0.2l0.1-0.3l0-0.1l0.1-0.1
					l0.1-0.1l0.1-0.1l0.1-0.1l0-0.1l0,0l0,0h0l0,0l0,0l0,0h0l0,0l0,0h0l-0.2,0l-0.2,0l-0.1,0l-0.1,0l-0.1,0l-0.1,0.1l-0.1,0.1
					L31,14.8l-0.1,0.1L30.8,15l-0.1,0.1l-0.1,0.1l-0.1,0.1l-0.1,0.1l-0.1,0.1l-0.1,0.1l0.2-1h-1.6L27.9,20.5"/>
			</g>
		</g>
	</g>
</g>
</svg>
