<svg xmlns="http://www.w3.org/2000/svg" width="84" height="86" viewBox="0 0 84 86">
  <defs>
    <style>
      .cls-1 {
        fill: #0061d9;
        fill-rule: evenodd;
      }
    </style>
  </defs>
  <path id="Shape_5_copy" data-name="Shape 5 copy" class="cls-1" d="M81.545,41.88a1.8,1.8,0,0,1-1.6-.985A39.823,39.823,0,0,0,67.187,25.8a30.127,30.127,0,0,0-17.223-5.2H33.707a30.128,30.128,0,0,0-17.226,5.2A39.8,39.8,0,0,0,3.726,40.9a1.8,1.8,0,0,1-2.436.777A1.842,1.842,0,0,1,.524,39.2C4.188,32.083,8.88,26.552,14.472,22.759a33.652,33.652,0,0,1,19.235-5.821H49.964A33.631,33.631,0,0,1,69.2,22.76c5.593,3.792,10.287,9.325,13.949,16.442a1.842,1.842,0,0,1-.766,2.469A1.775,1.775,0,0,1,81.545,41.88ZM79.478,75.832A16.145,16.145,0,0,0,82.4,61.572l-1.983-6.945C74.794,34.953,63.237,23.67,48.7,23.67H34.965c-14.531,0-26.088,11.283-31.707,30.957L1.274,61.572A16.154,16.154,0,0,0,4.193,75.838,25.922,25.922,0,0,0,24.11,85.821H59.561A25.923,25.923,0,0,0,79.478,75.832ZM48.7,27.332c18.189,0,25.807,19.8,28.239,28.313l1.983,6.944a12.5,12.5,0,0,1-2.337,11.045,22.16,22.16,0,0,1-17.028,8.524H24.11A22.158,22.158,0,0,1,7.08,73.638,12.5,12.5,0,0,1,4.743,62.59l1.984-6.944c2.432-8.514,10.05-28.313,28.238-28.313H48.7ZM40.891,7.511a7.41,7.41,0,1,0-14.819,0A7.41,7.41,0,1,0,40.891,7.511Zm-3.614,0a3.8,3.8,0,1,1-3.8-3.847A3.826,3.826,0,0,1,37.277,7.511Zm20.32,0a7.41,7.41,0,1,0-14.819,0A7.41,7.41,0,1,0,57.6,7.511Zm-3.613,0a3.8,3.8,0,1,1-3.8-3.847A3.826,3.826,0,0,1,53.984,7.511Z"/>
</svg>
