<?xml version="1.0" encoding="utf-8"?>
<!-- Generator: Adobe Illustrator 19.0.0, SVG Export Plug-In . SVG Version: 6.00 Build 0)  -->
<svg version="1.1" id="Layer_1" xmlns="http://www.w3.org/2000/svg" xmlns:xlink="http://www.w3.org/1999/xlink" x="0px" y="0px"
	 viewBox="0 0 67.5 64.4" style="enable-background:new 0 0 67.5 64.4;" xml:space="preserve">
<style type="text/css">
	.st0{clip-path:url(#SVGID_2_);}
	.st1{clip-path:url(#SVGID_2_);fill:none;stroke:#000000;stroke-width:0.5;stroke-miterlimit:10;}
</style>
<g>
	<defs>
		<rect id="SVGID_1_" width="67.5" height="64.4"/>
	</defs>
	<clipPath id="SVGID_2_">
		<use xlink:href="#SVGID_1_"  style="overflow:visible;"/>
	</clipPath>
	<path class="st0" d="M62,6.3h-8.1c-1,0-1.8,0.8-1.8,1.8c0,1,0.8,1.8,1.8,1.8H62c1,0,1.8,0.8,1.8,1.8v10.9h-60V11.5
		c0-1,0.8-1.8,1.8-1.8h9.2c1,0,1.7-0.8,1.7-1.8c0-1-0.8-1.8-1.7-1.8H5.5c-2.9,0-5.2,2.4-5.2,5.2v47.4c0,2.9,2.4,5.2,5.2,5.2H62
		c2.9,0,5.2-2.4,5.2-5.2V11.5C67.2,8.6,64.9,6.3,62,6.3 M63.7,58.9c0,1-0.8,1.8-1.8,1.8H5.5c-1,0-1.8-0.8-1.8-1.8v-33h60L63.7,58.9
		L63.7,58.9z M26.6,9.8h14c1,0,1.8-0.8,1.8-1.8c0-1-0.8-1.8-1.8-1.8h-14c-1,0-1.8,0.8-1.8,1.8C24.9,9,25.7,9.8,26.6,9.8 M20.3,19.2
		c2,0,3.6-1.6,3.6-3.6c0-1.4-0.8-2.5-1.9-3.2V2c0-1-0.8-1.7-1.8-1.7c-1,0-1.8,0.8-1.8,1.7v10.4c-1.1,0.6-1.9,1.8-1.9,3.2
		C16.7,17.6,18.3,19.2,20.3,19.2 M47.2,19.2c2,0,3.6-1.6,3.6-3.6c0-1.4-0.8-2.5-1.9-3.2V2c0-1-0.8-1.7-1.8-1.7c-1,0-1.8,0.8-1.8,1.7
		v10.4c-1.1,0.6-1.9,1.8-1.9,3.2C43.5,17.6,45.2,19.2,47.2,19.2"/>
	<path class="st1" d="M62,6.3h-8.1c-1,0-1.8,0.8-1.8,1.8c0,1,0.8,1.8,1.8,1.8H62c1,0,1.8,0.8,1.8,1.8v10.9h-60V11.5
		c0-1,0.8-1.8,1.8-1.8h9.2c1,0,1.7-0.8,1.7-1.8c0-1-0.8-1.8-1.7-1.8H5.5c-2.9,0-5.2,2.4-5.2,5.2v47.4c0,2.9,2.4,5.2,5.2,5.2H62
		c2.9,0,5.2-2.4,5.2-5.2V11.5C67.2,8.6,64.9,6.3,62,6.3z M63.7,58.9c0,1-0.8,1.8-1.8,1.8H5.5c-1,0-1.8-0.8-1.8-1.8v-33h60L63.7,58.9
		L63.7,58.9z M26.6,9.8h14c1,0,1.8-0.8,1.8-1.8c0-1-0.8-1.8-1.8-1.8h-14c-1,0-1.8,0.8-1.8,1.8C24.9,9,25.7,9.8,26.6,9.8z M20.3,19.2
		c2,0,3.6-1.6,3.6-3.6c0-1.4-0.8-2.5-1.9-3.2V2c0-1-0.8-1.7-1.8-1.7c-1,0-1.8,0.8-1.8,1.7v10.4c-1.1,0.6-1.9,1.8-1.9,3.2
		C16.7,17.6,18.3,19.2,20.3,19.2z M47.2,19.2c2,0,3.6-1.6,3.6-3.6c0-1.4-0.8-2.5-1.9-3.2V2c0-1-0.8-1.7-1.8-1.7
		c-1,0-1.8,0.8-1.8,1.7v10.4c-1.1,0.6-1.9,1.8-1.9,3.2C43.5,17.6,45.2,19.2,47.2,19.2z"/>
</g>
</svg>
