<svg xmlns="http://www.w3.org/2000/svg" width="94" height="88" viewBox="0 0 94 88">
  <defs>
    <style>
      .cls-1 {
        fill: #0061d9;
        fill-rule: evenodd;
      }
    </style>
  </defs>
  <path id="Shape_4_copy" data-name="Shape 4 copy" class="cls-1" d="M80.962,87.836A1.975,1.975,0,0,1,79,85.852V78.514L66.013,78.7a1.942,1.942,0,0,1-1.762-1.049,2,2,0,0,1,.119-2.065L79.348,53.755a1.964,1.964,0,0,1,2.2-.764,1.985,1.985,0,0,1,1.378,1.894v19.6l4.09-.059h0.029a1.984,1.984,0,0,1,.029,3.967l-4.149.062v7.4A1.975,1.975,0,0,1,80.962,87.836ZM79,61.23L69.772,74.681,79,74.545V61.23ZM62.418,87.836H43.212A1.961,1.961,0,0,1,41.4,86.612a2,2,0,0,1,.425-2.161l11.5-11.623a0.773,0.773,0,0,1,.063-0.062l0.043-.041c3.267-2.947,4.887-6.168,4.56-9.068a6.578,6.578,0,0,0-3.433-5.038c-2.283-1.262-4.39-1.236-6.262.088a8.387,8.387,0,0,0-3.326,7.438,1.964,1.964,0,1,1-3.88.609,12.318,12.318,0,0,1,4.953-11.3,9.37,9.37,0,0,1,10.4-.318,10.627,10.627,0,0,1,5.446,8.066c0.474,4.209-1.593,8.628-5.817,12.452L47.952,83.87H62.418A1.983,1.983,0,0,1,62.418,87.836ZM32.826,84.849a1.854,1.854,0,0,1-.5-0.065A43.012,43.012,0,0,1,.483,43.087c0-23.761,19.13-43.093,42.643-43.093A42.89,42.89,0,0,1,85.686,40.377l4.225-8.97a1.963,1.963,0,0,1,2.616-.94,1.994,1.994,0,0,1,.928,2.646L86.464,47.961a1.951,1.951,0,0,1-3.313.377l-10.09-12.9a2,2,0,0,1,.322-2.785,1.95,1.95,0,0,1,2.759.326l5.591,7.144A38.936,38.936,0,0,0,43.127,3.963,39.178,39.178,0,0,0,33.32,80.947,1.986,1.986,0,0,1,32.826,84.849Zm10.3-35.137a6.629,6.629,0,0,1-6.488-7.584l-13.527-7.89a2,2,0,0,1-.719-2.713,1.962,1.962,0,0,1,2.682-.726l13.281,7.748a6.5,6.5,0,0,1,8.383-.985L65.013,19.092a1.95,1.95,0,0,1,2.778,0,2,2,0,0,1,0,2.8L49.226,40.659A6.636,6.636,0,0,1,43.127,49.712ZM40.5,42.869c-0.005.073-.008,0.145-0.008,0.218a2.629,2.629,0,1,0,2.63-2.656,2.615,2.615,0,0,0-1.927.85,2,2,0,0,1-.262,1.066A1.942,1.942,0,0,1,40.5,42.869Zm-25.419,2.2H12.223a1.984,1.984,0,0,1,0-3.967h2.863A1.984,1.984,0,0,1,15.086,45.07Zm28.04-28.336a1.974,1.974,0,0,1-1.964-1.983V11.858a1.964,1.964,0,1,1,3.928,0v2.893A1.975,1.975,0,0,1,43.127,16.734Z"/>
</svg>
