<svg xmlns="http://www.w3.org/2000/svg" width="77" height="77" viewBox="0 0 77 77">
  <defs>
    <style>
      .cls-1 {
        fill: #0061d9;
        fill-rule: evenodd;
      }
    </style>
  </defs>
  <path id="Shape_6_copy" data-name="Shape 6 copy" class="cls-1" d="M69.847,32.128H64.356A2.2,2.2,0,0,1,62.3,29.765V20.482a2.2,2.2,0,0,1,2.057-2.361h5.491A2.2,2.2,0,0,1,71.9,20.482v9.283A2.2,2.2,0,0,1,69.847,32.128ZM65.531,28.9h3.142V21.352H65.531V28.9Zm4.317-7.544h0Zm0,37.541H64.356A2.2,2.2,0,0,1,62.3,56.531V47.249a2.2,2.2,0,0,1,2.057-2.361h5.491A2.2,2.2,0,0,1,71.9,47.249v9.282A2.2,2.2,0,0,1,69.847,58.893Zm-4.317-3.231h3.142V48.118H65.531v7.544Zm4.317-7.544h0Zm-6.6,20.736H13.745a5.6,5.6,0,0,1-5.6-5.6v-49.5a5.6,5.6,0,0,1,5.6-5.6H63.252a5.6,5.6,0,0,1,5.6,5.6v4.892a1.616,1.616,0,0,1-3.232,0V13.757a2.368,2.368,0,0,0-2.365-2.366H13.745a2.368,2.368,0,0,0-2.365,2.366v49.5a2.367,2.367,0,0,0,2.365,2.365H63.252a2.367,2.367,0,0,0,2.365-2.365V57.715a1.616,1.616,0,0,1,3.232,0v5.542A5.6,5.6,0,0,1,63.252,68.854ZM67.233,47.6a1.617,1.617,0,0,1-1.616-1.616V31.671a1.616,1.616,0,0,1,3.232,0V45.987A1.617,1.617,0,0,1,67.233,47.6ZM38.5,56.594a18.087,18.087,0,1,1,18.09-18.088A18.109,18.109,0,0,1,38.5,56.594Zm0-32.942A14.856,14.856,0,1,0,53.356,38.506,14.873,14.873,0,0,0,38.5,23.651Zm0,25.195a10.339,10.339,0,1,1,10.341-10.34A10.352,10.352,0,0,1,38.5,48.846Zm0-17.447a7.108,7.108,0,1,0,7.109,7.107A7.115,7.115,0,0,0,38.5,31.4Zm27.37,45.608H11.129A11.148,11.148,0,0,1-.007,65.872V11.141A11.148,11.148,0,0,1,11.129.006h54.74A11.148,11.148,0,0,1,77,11.141V65.872A11.148,11.148,0,0,1,65.868,77.007ZM11.129,3.238a7.911,7.911,0,0,0-7.9,7.9V65.872a7.912,7.912,0,0,0,7.9,7.9h54.74a7.912,7.912,0,0,0,7.9-7.9V11.141a7.911,7.911,0,0,0-7.9-7.9H11.129ZM38.5,27.6a1.617,1.617,0,0,1-1.616-1.616V22.036a1.616,1.616,0,0,1,3.232,0V25.98A1.617,1.617,0,0,1,38.5,27.6ZM29.64,31.265a1.607,1.607,0,0,1-1.142-.474L25.709,28a1.615,1.615,0,1,1,2.283-2.285l2.791,2.79A1.616,1.616,0,0,1,29.64,31.265Zm-3.669,8.858H22.025a1.616,1.616,0,1,1,0-3.232h3.946A1.616,1.616,0,1,1,25.971,40.122ZM26.85,51.77a1.616,1.616,0,0,1-1.143-2.758l2.79-2.791a1.616,1.616,0,1,1,2.285,2.285L27.993,51.3A1.61,1.61,0,0,1,26.85,51.77ZM38.5,56.592a1.617,1.617,0,0,1-1.616-1.616V51.032a1.616,1.616,0,0,1,3.232,0v3.944A1.617,1.617,0,0,1,38.5,56.592ZM50.147,51.77A1.61,1.61,0,0,1,49,51.3l-2.79-2.789A1.616,1.616,0,1,1,48.5,46.221l2.79,2.791A1.616,1.616,0,0,1,50.147,51.77Zm4.825-11.647H51.026a1.616,1.616,0,1,1,0-3.232h3.946A1.616,1.616,0,1,1,54.972,40.122Zm-7.615-8.858a1.616,1.616,0,0,1-1.142-2.758l2.791-2.79A1.615,1.615,0,1,1,51.289,28L48.5,30.791A1.608,1.608,0,0,1,47.357,31.265Z"/>
</svg>
