<svg xmlns="http://www.w3.org/2000/svg" width="200" height="39" viewBox="0 0 200 39">
  <defs>
    <style>
      .cls-1 {
        fill: #0061d9;
        fill-rule: evenodd;
      }
    </style>
  </defs>
  <path id="Shape_2_copy_2" data-name="Shape 2 copy 2" class="cls-1" d="M57.445,27.043l0.206,5.413a22.261,22.261,0,0,1-3.533.333c-4.97.042-7.969-2.29-7.969-8.162V15.757H43.233V10.134h2.917V10.126h3.165L46.149,8.42V5.845L52.6,5.261v4.873H57.24v5.622H52.6v8.871c0,2,1.438,2.624,3,2.624A9.01,9.01,0,0,0,57.445,27.043ZM42.689,21.087a13.1,13.1,0,0,1-.247,2.582H26.5a5.065,5.065,0,0,0,4.765,3.165,4.951,4.951,0,0,0,3.738-1.541h7.024a11.171,11.171,0,0,1-11.091,7.371c-5.627-.125-11.214-3.957-11.214-11.578,0-7.746,5.792-11.578,11.583-11.536C37.02,9.593,42.689,13.424,42.689,21.087Zm-7.065-2.54a4.376,4.376,0,0,0-4.518-3.29,4.394,4.394,0,0,0-4.354,3.29h8.872Zm-27,7H3.916l3.108-1.681V3.262H0V32.415H19.1V25.544H8.622V25.55ZM78.47,32.415h6.983V21.879H96.42V15.257H85.453V11.27L82.258,9.8h5.277v0h9.543V3.012H78.47v29.4ZM122.018,9.884l-2.752,7.206-1.643,5.7-1.561-5.7L113.31,9.884h-6.736v1.042l7.394,19.657L111.092,38v1h6.7c3.614-9.37,7.27-18.7,10.926-28.07V9.884h-6.7ZM98.624,32.415H105.2V3.262H98.624V32.415ZM67.992,17.964c-0.945-.041-2.67-0.083-2.67-1.249,0-1.208,1.314-1.541,2.259-1.541,1.355,0,3.081.125,3.122,1.874h6.2c-0.041-5.247-4.19-7.7-8.955-7.7-4.97,0-9.16,2.332-9.16,7.788,0,4.956,4.354,6.581,8.544,6.955,1.068,0.084,3.532-.124,3.532,1.5,0,0.791-1.15,1.416-2.834,1.374-1.479,0-3.04-.624-3.081-2.123h-6.49C58.544,30.583,62.57,33,67.869,33c4.929,0,9.488-1.916,9.488-7.579C77.357,20.088,72.633,18.089,67.992,17.964ZM122.875,0.007c14.247,5.8,28.547,11.477,42.826,17.193,5.126,0.437,10.3.044,15.437,0.345,2.113,0.918,3.709,2.793,5.687,3.994q-0.582,1.419-1.153,2.842c-0.114-.584-0.227-1.164-0.335-1.749-2.118.175-4.355-.334-6.4,0.328-3.078,1.924-5.967,4.143-8.975,6.176-3.768-.028-7.535.038-11.3-0.011a2.6,2.6,0,0,1-1.677-.841c-2.172-1.776-4.269-3.662-6.554-5.3,1.784-.754,3.568-1.5,5.369-2.2-2.582.044-5.159,0.044-7.741,0.033-2.442-1.912-4.689-4.077-7.19-5.913,2.134-.022,4.274-0.044,6.409-0.082-3.095-.787-6.108-1.853-9.164-2.749-1.579-.432-2.727-1.677-3.951-2.694C130.422,6.22,126.621,3.144,122.875.007Zm63.417,8.678c4.56-1.836,9.136-3.618,13.707-5.421-5.288,4.52-10.624,8.974-15.971,13.417a4.358,4.358,0,0,0-2.658-.8c-4.317.05-8.635-.082-12.958-0.06,3.256-1.405,6.6-2.579,9.864-3.957,2.038-.979,4.318-0.514,6.479-0.5a18.648,18.648,0,0,0-3.471-.935A24.268,24.268,0,0,0,186.292,8.685ZM164.057,30.546a75.726,75.726,0,0,1,8.484-.23c-2.016.673-3.94,1.59-5.951,2.268C165.534,32.322,164.9,31.191,164.057,30.546Z"/>
</svg>
