<svg xmlns="http://www.w3.org/2000/svg" width="24" height="24" viewBox="0 0 24 24">
  <defs>
    <style>
      .cls-1 {
        fill: #fff;
      }
    </style>
  </defs>
  <path class="cls-1" d="M10.5,7.018A0.719,0.719,0,0,1,10.351,7L6.057,6.054a0.716,0.716,0,0,1,.307-1.4l3.912,0.863,1.878-1.883a0.716,0.716,0,0,1,1.011,1.013L11.01,6.808A0.715,0.715,0,0,1,10.5,7.018Zm7.159,7.175a0.715,0.715,0,0,1-.7-0.563l-0.9-4.085a0.718,0.718,0,0,1,.192-0.66l5.81-5.823a1.646,1.646,0,0,0,.313-0.433,1.345,1.345,0,0,0,.133-0.436,0.9,0.9,0,0,0-.025-0.355,0.538,0.538,0,0,0-.136-0.232,0.546,0.546,0,0,0-.233-0.137,0.869,0.869,0,0,0-.353-0.025,1.359,1.359,0,0,0-.435.134,1.642,1.642,0,0,0-.431.314L15.1,7.71a0.717,0.717,0,0,1-.659.193L10.351,7a0.716,0.716,0,0,1,.307-1.4l3.7,0.818,5.53-5.541A3.092,3.092,0,0,1,20.7.294,2.744,2.744,0,0,1,21.607.02,2.31,2.31,0,0,1,22.537.1a1.958,1.958,0,0,1,1.325,1.328,2.3,2.3,0,0,1,.076.931,2.764,2.764,0,0,1-.273.91,3.1,3.1,0,0,1-.583.809L17.549,9.62l0.813,3.7a0.717,0.717,0,0,1-.544.854A0.7,0.7,0,0,1,17.664,14.193Zm0.945,4.3a0.716,0.716,0,0,1-.7-0.563l-0.945-4.3a0.719,0.719,0,0,1,.192-0.661l1.992-2a0.716,0.716,0,0,1,1.011,1.014l-1.715,1.719,0.861,3.92a0.716,0.716,0,0,1-.544.854A0.708,0.708,0,0,1,18.609,18.5Zm-0.79,5.5a1.039,1.039,0,0,1-.194-0.019c-0.742-.142-1.163-1-1.677-2.187-0.068-.158-0.131-0.3-0.188-0.425l-0.2-.421c-1-2.131-1.951-4.157-3-6.2-1.113.95-2.12,1.973-3.175,3.046l-0.69.7,0.178,1.759a2.043,2.043,0,0,1-.5,1.646l-0.368.369a1.516,1.516,0,0,1-1.31.58,1.458,1.458,0,0,1-.974-1.01L4.692,19.309,2.177,18.274A1.458,1.458,0,0,1,1.169,17.3a1.52,1.52,0,0,1,.578-1.312l0.369-.368a2.145,2.145,0,0,1,1.343-.485,1.223,1.223,0,0,1,.3-0.02l1.751,0.178c0.708-.72,1.381-1.453,2.033-2.162,0.528-.574,1.069-1.162,1.635-1.752-2.01-1.028-4-1.968-6.1-2.956L2.637,8.211c-0.12-.056-0.266-0.119-0.424-0.188C1.023,7.508.17,7.085,0.028,6.342A1.055,1.055,0,0,1,.344,5.381l0.937-.938A2.556,2.556,0,0,1,3.4,4L5.981,4.57,7.7,2.846A0.716,0.716,0,1,1,8.713,3.859l-2,2a0.721,0.721,0,0,1-.659.193L3.089,5.4a1.488,1.488,0,0,0-.822.079L1.61,6.139a10.477,10.477,0,0,0,1.171.569c0.174,0.075.334,0.145,0.465,0.207L3.69,7.124C6.095,8.259,8.367,9.33,10.7,10.55a0.717,0.717,0,0,1,.175,1.142c-0.8.8-1.549,1.617-2.277,2.407s-1.5,1.627-2.312,2.445a0.718,0.718,0,0,1-.578.206l-2-.2-0.094.011a1.981,1.981,0,0,0-.51.1l-0.313.319L5.511,18.1a0.716,0.716,0,0,1,.39.391l1.12,2.734,0.344-.346a0.71,0.71,0,0,0,.091-0.488L7.244,18.294a0.717,0.717,0,0,1,.206-0.579l0.923-.933a43.055,43.055,0,0,1,3.98-3.718,0.714,0.714,0,0,1,1.077.23c1.22,2.34,2.292,4.623,3.426,7.039l0.2,0.42c0.062,0.132.131,0.292,0.206,0.466a10.641,10.641,0,0,0,.567,1.171l0.682-.682a1.057,1.057,0,0,0,.057-0.8l-0.654-2.974a0.719,0.719,0,0,1,.193-0.661l2.448-2.453a0.716,0.716,0,0,1,1.011,1.013l-2.172,2.176L19.961,20.6a2.288,2.288,0,0,1-.442,2.121l-0.936.937A1.074,1.074,0,0,1,17.819,23.994Z"/>
</svg>
