<svg xmlns="http://www.w3.org/2000/svg" width="26" height="26" viewBox="0 0 26 26">
  <defs>
    <style>
      .cls-1 {
        fill: #bfbfbf;
      }
    </style>
  </defs>
  <path class="cls-1" d="M25.116,25.88a0.769,0.769,0,0,1-.24-0.038L17.5,23.382c-0.054,0-.1,0-0.15.008l-3.98,1.989a0.762,0.762,0,0,1-.726-0.027L4.562,20.53,1.5,25.523a0.754,0.754,0,0,1-1.028.25A0.732,0.732,0,0,1,.219,24.76l3.062-4.994-1.7-1.014a0.732,0.732,0,0,1-.253-1.014,0.756,0.756,0,0,1,1.028-.249l10.707,6.388,3.709-1.853a0.769,0.769,0,0,1,.183-0.064,2.514,2.514,0,0,1,.762-0.044,0.757,0.757,0,0,1,.169.036l7.47,2.49a0.736,0.736,0,0,1,.469.936A0.748,0.748,0,0,1,25.116,25.88Zm-2.3-2.764a3.251,3.251,0,0,1-.774-0.1,0.756,0.756,0,0,1-.26-0.12L18.235,20.36l-3.972,2.134a0.728,0.728,0,0,1-.117.051,2.586,2.586,0,0,1-2.121-.273L7.98,19.845a2.323,2.323,0,0,1-1.089-1.486,2.233,2.233,0,0,1-.021-0.893,3.241,3.241,0,0,1-.791.275,3.133,3.133,0,0,1-3.722-2.257,2.851,2.851,0,0,1,.386-2.218,3.1,3.1,0,0,1,1.989-1.349h0a3.135,3.135,0,0,1,3.723,2.256A2.838,2.838,0,0,1,8.4,15.687a2.537,2.537,0,0,1,2.174.2h0l3.049,1.83L17.4,15.69a0.735,0.735,0,0,1,.232-0.106,2.529,2.529,0,0,1,1.459.053,0.777,0.777,0,0,1,.183.091l4.214,2.883a2.774,2.774,0,0,1,1.24,3.346A2.023,2.023,0,0,1,22.812,23.115Zm-0.281-1.5a0.716,0.716,0,0,0,.835-0.263,1.39,1.39,0,0,0-.73-1.525l-4.117-2.817a1.016,1.016,0,0,0-.412-0.015l-4.145,2.223a0.762,0.762,0,0,1-.747-0.018L9.8,17.145a0.992,0.992,0,0,0-1.324.27,0.8,0.8,0,0,0-.119.623,0.857,0.857,0,0,0,.406.546l4.046,2.429a1.1,1.1,0,0,0,.807.151l4.321-2.322a0.759,0.759,0,0,1,.8.051ZM5.409,13.322a1.749,1.749,0,0,0-.363.037h0a1.616,1.616,0,0,0-1.038.7,1.405,1.405,0,0,0-.192,1.092A1.636,1.636,0,0,0,5.767,16.3,1.614,1.614,0,0,0,6.8,15.6,1.408,1.408,0,0,0,7,14.507,1.6,1.6,0,0,0,5.409,13.322ZM4.89,12.638h0Zm9.279,4.443a0.723,0.723,0,0,1-.719-0.628l-1.2-9.625a0.718,0.718,0,0,1,.632-0.8,0.726,0.726,0,0,1,.809.623l1.2,9.625a0.718,0.718,0,0,1-.632.8A0.849,0.849,0,0,1,14.169,17.081ZM0.8,8.516a0.729,0.729,0,0,1-.374-0.1A0.709,0.709,0,0,1,.18,7.431C2.374,3.849,6.982,1.231,12.205.6S22.544,1.408,25.552,4.361a0.707,0.707,0,0,1,0,1.011,0.732,0.732,0,0,1-1.026,0c-2.7-2.65-7.358-3.938-12.146-3.355S3.391,4.956,1.421,8.17A0.727,0.727,0,0,1,.8,8.516Zm4.732-.562A0.741,0.741,0,0,1,5.3,7.917a0.713,0.713,0,0,1-.459-0.9A9.126,9.126,0,0,1,12.2.588a9.209,9.209,0,0,1,8.718,4.478,0.709,0.709,0,0,1-.222.987,0.732,0.732,0,0,1-1-.219,7.752,7.752,0,0,0-7.318-3.826A7.694,7.694,0,0,0,6.22,7.465,0.725,0.725,0,0,1,5.532,7.954Zm4.954-.6H10.461a0.721,0.721,0,0,1-.7-0.739c0.073-2.149.489-5.79,2.444-6.027s3.253,3.2,3.851,5.265a0.714,0.714,0,0,1-.5.884,0.726,0.726,0,0,1-.9-0.491C13.7,2.919,12.64,1.96,12.381,2.008c-0.271.032-1.052,1.2-1.17,4.656A0.721,0.721,0,0,1,10.486,7.355ZM0.85,8.922A0.715,0.715,0,0,1,.762,7.5L25,4.563a0.728,0.728,0,0,1,.809.623,0.718,0.718,0,0,1-.632.8L0.939,8.916A0.768,0.768,0,0,1,.85,8.922Z"/>
</svg>
