<svg xmlns="http://www.w3.org/2000/svg" width="27" height="25" viewBox="0 0 27 25">
  <defs>
    <style>
      .cls-1 {
        fill: #bfbfbf;
      }
    </style>
  </defs>
  <path class="cls-1" d="M12.743,5.731A0.719,0.719,0,0,0,13.454,5V1.617A0.156,0.156,0,0,1,13.6,1.465H17.89a0.153,0.153,0,0,1,.149.152V4.949a0.711,0.711,0,1,0,1.421,0V1.617A1.59,1.59,0,0,0,17.89.012H13.6a1.59,1.59,0,0,0-1.57,1.605V5A0.719,0.719,0,0,0,12.743,5.731ZM23.509,5.811a0.719,0.719,0,0,0,.711-0.727V3.009A1.59,1.59,0,0,0,22.649,1.4H19.024a0.727,0.727,0,0,0,0,1.453h3.625a0.153,0.153,0,0,1,.149.153V5.085A0.719,0.719,0,0,0,23.509,5.811Zm-7.164,8.27a0.719,0.719,0,0,0,.71-0.726V7.637a0.711,0.711,0,1,0-1.421,0v5.718A0.719,0.719,0,0,0,16.345,14.081Zm-10.066,0h19.4a0.727,0.727,0,0,0,0-1.453H6.279A0.727,0.727,0,0,0,6.279,14.081ZM2.134,22.165h1.4a0.727,0.727,0,0,0,0-1.453h-1.4a0.834,0.834,0,0,1-.727-0.5V16.053A1.256,1.256,0,0,1,2.292,15l4.834-1.087c1.086-.244,1.785-1.782,2.594-3.564,0.429-.944,1.226-2.7,1.649-2.8,3.152,0.054,3.271.054,4.912,0.043,1.182-.007,3.156-0.019,7.64-0.019a0.933,0.933,0,0,1,.741.7l0.928,4.806v7.135a0.511,0.511,0,0,1-.487.5H23.941a0.727,0.727,0,0,0,0,1.453H25.1a1.956,1.956,0,0,0,1.908-1.95V13.009A0.769,0.769,0,0,0,27,12.868L26.057,7.991a2.328,2.328,0,0,0-2.136-1.875c-4.489,0-6.465.012-7.648,0.019-1.631.01-1.75,0.011-4.893-.042H11.357c-1.271,0-2.038,1.689-2.925,3.642-0.419.923-1.2,2.642-1.611,2.758L1.987,13.58a2.693,2.693,0,0,0-2,2.472v4.162A2.173,2.173,0,0,0,2.134,22.165Zm7.189,0h8.594a0.727,0.727,0,0,0,0-1.453H9.323A0.727,0.727,0,0,0,9.323,22.165Zm-2.89,2.829a3.456,3.456,0,0,0,0-6.911A3.456,3.456,0,0,0,6.432,24.994Zm0-5.458a2,2,0,1,1-1.959,2A1.983,1.983,0,0,1,6.432,19.536Zm14.619,5.458a3.456,3.456,0,1,0-3.38-3.455A3.423,3.423,0,0,0,21.051,24.994Zm0-5.458a2,2,0,1,1-1.959,2A1.983,1.983,0,0,1,21.051,19.536Zm-9.59-13.66H25.233a0.727,0.727,0,0,0,0-1.453H11.461A0.727,0.727,0,0,0,11.461,5.875Z"/>
</svg>
