<svg xmlns="http://www.w3.org/2000/svg" width="29" height="25" viewBox="0 0 29 25">
  <defs>
    <style>
      .cls-1 {
        fill: #bfbfbf;
      }
    </style>
  </defs>
  <path class="cls-1" d="M26.462,24.995H3.276A2.373,2.373,0,0,1,.883,22.648V5.584A2.373,2.373,0,0,1,3.276,3.238h7.368V1.722A1.7,1.7,0,0,1,11.1.565,0.782,0.782,0,0,1,11.165.49a1.786,1.786,0,0,1,1.252-.506h4.9A1.786,1.786,0,0,1,18.573.49a1.719,1.719,0,0,1,.52,1.233V3.238h7.369a2.373,2.373,0,0,1,2.393,2.346V22.648A2.373,2.373,0,0,1,26.462,24.995Zm-2.325-1.433h2.325a0.936,0.936,0,0,0,.932-0.915V5.584a0.924,0.924,0,0,0-.932-0.914H24.137V23.562Zm-17.077,0H22.677V4.67H7.061V23.562ZM3.276,4.67a0.924,0.924,0,0,0-.932.914V22.648a0.924,0.924,0,0,0,.932.915H5.6V4.67H3.276Zm8.829-1.432h5.527V1.722A0.307,0.307,0,0,0,17.541,1.5a0.319,0.319,0,0,0-.22-0.087h-4.9a0.317,0.317,0,0,0-.191.062L12.2,1.507a0.3,0.3,0,0,0-.094.215V3.238ZM14.89,18.661a0.724,0.724,0,0,1-.73-0.716V15.4H11.566a0.716,0.716,0,1,1,0-1.432h2.593V11.428a0.731,0.731,0,0,1,1.461,0v2.542h2.593a0.716,0.716,0,1,1,0,1.432H15.62v2.543A0.724,0.724,0,0,1,14.89,18.661Z"/>
</svg>
