<svg xmlns="http://www.w3.org/2000/svg" width="23" height="26" viewBox="0 0 23 26">
  <defs>
    <style>
      .cls-1 {
      fill: #bfbfbf;
      }
    </style>
  </defs>
  <path class="cls-1" d="M17.78,1.441a1.309,1.309,0,0,1,.891.337l1.263,1.16a1.091,1.091,0,0,1,0,1.633,1.332,1.332,0,0,1-.891.337,1.31,1.31,0,0,1-.891-0.337L17.29,3.78,16.047,6.069H20.3a1.2,1.2,0,0,1,1.253,1.156V19.947A1.212,1.212,0,0,1,20.3,21.1H19.186l0.975,1.8a1.116,1.116,0,0,1-.564,1.552,1.373,1.373,0,0,1-.538.107,1.393,1.393,0,0,1-1.15-.625l-1.54-2.83H6.6l-1.54,2.83a1.256,1.256,0,0,1-1.142.609,1.527,1.527,0,0,1-.546-0.09A1.113,1.113,0,0,1,2.808,22.9l0.975-1.8H2.675a1.212,1.212,0,0,1-1.258-1.156V7.225A1.212,1.212,0,0,1,2.675,6.069H6.933L5.69,3.78l-0.861.792a1.338,1.338,0,0,1-1.777,0,1.091,1.091,0,0,1,0-1.633l1.258-1.16A1.341,1.341,0,0,1,5.2,1.441H17.78M9.755,6.064H13.23l1.258-2.311H8.5L9.755,6.064m-5.184,8.1H18.414a0.606,0.606,0,0,0,.629-0.578V8.958a0.606,0.606,0,0,0-.629-0.578H4.571a0.606,0.606,0,0,0-.629.578v4.627a0.606,0.606,0,0,0,.629.578m13.214,4.623a1.16,1.16,0,1,0-1.258-1.156,1.208,1.208,0,0,0,1.258,1.156m-12.585,0a1.16,1.16,0,1,0,0-2.311,1.16,1.16,0,1,0,0,2.311M17.78,0H5.2A2.756,2.756,0,0,0,3.352.7L2.081,1.877a2.562,2.562,0,0,0-.832,1.878,2.529,2.529,0,0,0,.267,1.126A2.6,2.6,0,0,0-.017,7.225V19.947a2.594,2.594,0,0,0,1.526,2.34,2.5,2.5,0,0,0-.141,1.919,2.638,2.638,0,0,0,1.408,1.555,2.893,2.893,0,0,0,1.143.22A2.673,2.673,0,0,0,6.3,24.661l1.153-2.118h8.068l1.132,2.081a1.449,1.449,0,0,0,.107.168A2.823,2.823,0,0,0,19.059,26a2.793,2.793,0,0,0,1.135-.237,2.635,2.635,0,0,0,1.4-1.545,2.507,2.507,0,0,0-.136-1.929,2.6,2.6,0,0,0,1.526-2.341V7.225a2.519,2.519,0,0,0-.739-1.793,2.671,2.671,0,0,0-.782-0.547,2.52,2.52,0,0,0,.269-1.13,2.564,2.564,0,0,0-.834-1.88l-1.262-1.16A2.735,2.735,0,0,0,17.78,0h0ZM5.376,9.821H17.609v2.9H5.376v-2.9h0Z"/>
</svg>
