<svg xmlns="http://www.w3.org/2000/svg" xmlns:xlink="http://www.w3.org/1999/xlink" viewBox="0 0 325.33 496.71">
    <title>old_man</title>
        <path d="M109.1,173.28a9,9,0,0,0-9,9v14.43a9,9,0,0,0,18,0V182.3a9,9,0,0,0-9-9" transform="translate(0)" style="fill:#a4a4a4;"/>
        <path d="M243.25,141a38.21,38.21,0,0,0-54,0A9,9,0,0,0,202,153.79a20.16,20.16,0,0,1,28.5,0A9,9,0,0,0,243.25,141"
              transform="translate(0)" style="fill:#a4a4a4;"/>
        <path d="M136.11,141a38.2,38.2,0,0,0-54,0,9,9,0,0,0,12.76,12.76,20.16,20.16,0,0,1,28.5,0A9,9,0,1,0,136.11,141"
              transform="translate(0)" style="fill:#a4a4a4;"/>
        <path d="M216.23,173.28a9,9,0,0,0-9,9v14.43a9,9,0,1,0,18,0V182.3a9,9,0,0,0-9-9" transform="translate(0)" style="fill:#a4a4a4;"/>
        <path d="M325.33,174.27a37.15,37.15,0,0,0-33-36.87l-0.88-9.14,9,1.8a9,9,0,1,0,3.54-17.7l-14.51-2.9a128.11,128.11,0,0,0-2.77-13.57l5.7,1.14a9,9,0,1,0,3.54-17.7l-16.12-3.22a128.17,128.17,0,0,0-234.22,0L29.44,79.33A9,9,0,0,0,31.2,97.21,9.12,9.12,0,0,0,33,97l5.7-1.14a128.63,128.63,0,0,0-2.77,13.57l-14.51,2.9a9,9,0,0,0,1.76,17.88,9.12,9.12,0,0,0,1.78-.18l9-1.8L33,137.4a37.11,37.11,0,0,0-6.85,72.35A99.3,99.3,0,0,0,46.72,275,9,9,0,0,0,42,291.13a116.56,116.56,0,0,0,17.92,11c0.19,2,.48,4.15.87,6.39a9,9,0,0,0-1.83.84,75.21,75.21,0,0,0-36.47,64.75V487.69a9,9,0,0,0,9,9H246.35a9,9,0,0,0,0-18.05H171.69V417.88a9,9,0,1,0-18,0v60.78H40.53V374.11A57.23,57.23,0,0,1,65.84,326.4C73.2,345,88,364.94,115.23,374.23a9,9,0,0,0,11.53-5.85l1.11-3.54L155.76,398a9,9,0,0,0,13.8,0l27.9-33.13,1.11,3.54a9,9,0,0,0,11.53,5.85c27.2-9.29,42-29.19,49.38-47.83a57.23,57.23,0,0,1,25.32,47.71V478.66H237.63a9,9,0,1,0,0,18h56.2a9,9,0,0,0,9-9V374.11a75.22,75.22,0,0,0-36.48-64.75,9.2,9.2,0,0,0-1.83-.84c0.39-2.24.68-4.38,0.87-6.39a116.66,116.66,0,0,0,17.92-11A9,9,0,0,0,278.61,275a99.25,99.25,0,0,0,20.53-65.22,37,37,0,0,0,26.19-35.47M27.86,190.94a19,19,0,0,1,3.36-34.78Zm185,162.61-3.06-9.8a9,9,0,0,0-15.52-3.12l-31.6,37.53-31.6-37.53a9,9,0,0,0-15.52,3.12l-3.07,9.81c-21.56-10.86-29.76-30.27-32.89-43.48,15.82,5,38.54,8.86,59.15.37a55.15,55.15,0,0,0,23.93-18.74,55.15,55.15,0,0,0,23.92,18.74,69.88,69.88,0,0,0,26.76,5,109.64,109.64,0,0,0,32.31-5.34c-3.19,13.2-11.44,32.63-32.81,43.45M253,288.07c-22,9.87-44.24,12-59.52,5.7-10.31-4.25-17.83-12.4-22.37-24.24a9,9,0,0,0-8.42-5.79h0a9,9,0,0,0-8.43,5.79c-4.54,11.83-12.08,20-22.39,24.24-15.29,6.31-37.55,4.18-59.53-5.7q-1.48-.67-2.94-1.37C77.14,282,83.62,275.33,90,268.76c9.17-9.47,18.65-19.26,32.78-25.08,10.57-4.36,19.72-4.37,27.2,0a14.49,14.49,0,0,1,5.08,4.93,9,9,0,0,0,7.64,4.25h0a9,9,0,0,0,7.64-4.22,15.24,15.24,0,0,1,5.63-5.29c7.35-4,16.31-3.87,26.63.37,14.12,5.82,23.6,15.61,32.77,25.08,6.36,6.57,12.84,13.26,20.58,17.93q-1.46.71-2.94,1.38m7.84-19.93a143.23,143.23,0,0,1-12.51-11.94c-10-10.29-21.26-22-38.86-29.21-10.42-4.29-19.34-5.17-26.68-4.35a22.72,22.72,0,0,0,2.75-10.85V169.07a9,9,0,0,0-18.05,0v42.72a4.81,4.81,0,1,1-9.63,0V169.07a9,9,0,0,0-18.05,0v42.72a22.73,22.73,0,0,0,2.75,10.85c-7.38-.82-16.28.08-26.67,4.35C98.27,234.24,87,245.91,77,256.2a142.93,142.93,0,0,1-12.52,11.94,81.47,81.47,0,0,1-20-61.93l7.89-81.65L85.09,118a9,9,0,1,0-3.54-17.7l-26.64,5.33a110.15,110.15,0,0,1,3.81-13.78L93.14,85A9,9,0,1,0,89.6,67.3L68.24,71.57a110,110,0,0,1,188.85,0L235.73,67.3A9,9,0,1,0,232.19,85l34.42,6.88a110,110,0,0,1,3.81,13.78l-26.63-5.33a9,9,0,1,0-3.54,17.7l32.69,6.54,7.89,81.65a81.43,81.43,0,0,1-20,61.92m36.63-77.2-3.36-34.78a19,19,0,0,1,3.36,34.78"
              transform="translate(0)" style="fill:#a4a4a4;"/>
</svg>