<svg xmlns="http://www.w3.org/2000/svg" width="14" height="15" viewBox="0 0 14 15">
  <defs>
    <style>
      .cls-1 {
        fill: #0061d9;
        fill-rule: evenodd;
      }
    </style>
  </defs>
  <path id="Magnifying_Glass_copy_3" data-name="Magnifying Glass copy 3" class="cls-1" d="M7.8,10.435a6.583,6.583,0,0,1-2.529.8C2.3,11.23,0,8.441,0,5.364A5.214,5.214,0,0,1,5.275-.008,5.558,5.558,0,0,1,10.95,5.364,6.5,6.5,0,0,1,9.63,8.906l4.182,4.057a0.667,0.667,0,0,1,0,.922l-0.891.922a0.616,0.616,0,0,1-.891,0ZM5.507,1.8A3.717,3.717,0,0,1,9.161,5.58,3.716,3.716,0,0,1,5.507,9.356,3.716,3.716,0,0,1,1.854,5.58,3.717,3.717,0,0,1,5.507,1.8Z"/>
</svg>
