<svg xmlns="http://www.w3.org/2000/svg" xmlns:xlink="http://www.w3.org/1999/xlink" width="58" height="61" viewBox="0 0 58 61">
  <defs>
    <style>
      .cls-1 {
      fill: #d4d4d4;
      }
    </style>
  </defs>
  <path id="Shape_11_copy" data-name="Shape 11 copy" class="cls-1" d="M56.691,29.389a1.245,1.245,0,0,1-1.108-.686,27.716,27.716,0,0,0-8.826-10.527A20.731,20.731,0,0,0,34.839,14.55H23.59a20.73,20.73,0,0,0-11.919,3.628A27.7,27.7,0,0,0,2.846,28.7a1.237,1.237,0,0,1-1.686.541,1.289,1.289,0,0,1-.53-1.722,30.187,30.187,0,0,1,9.651-11.468A23.155,23.155,0,0,1,23.59,12H34.839a23.138,23.138,0,0,1,13.307,4.061A30.175,30.175,0,0,1,57.8,27.523a1.289,1.289,0,0,1-.53,1.722A1.222,1.222,0,0,1,56.691,29.389ZM55.26,53.067a11.329,11.329,0,0,0,2.019-9.945l-1.372-4.843C52.019,24.559,44.023,16.69,33.967,16.69H24.461c-10.054,0-18.051,7.869-21.938,21.588L1.149,43.122a11.335,11.335,0,0,0,2.02,9.949A17.887,17.887,0,0,0,16.95,60.033H41.479A17.889,17.889,0,0,0,55.26,53.067ZM33.967,19.244c12.585,0,17.857,13.808,19.539,19.745l1.372,4.843a8.768,8.768,0,0,1-1.617,7.7,15.292,15.292,0,0,1-11.782,5.945H16.95A15.29,15.29,0,0,1,5.167,51.537a8.772,8.772,0,0,1-1.617-7.7l1.373-4.843C6.6,33.052,11.877,19.244,24.461,19.244h9.507ZM28.561,5.421a5.128,5.128,0,1,0-10.253,0A5.128,5.128,0,1,0,28.561,5.421Zm-2.5,0a2.627,2.627,0,1,1-2.626-2.683A2.658,2.658,0,0,1,26.061,5.421Zm14.06,0a5.128,5.128,0,1,0-10.253,0A5.128,5.128,0,1,0,40.12,5.421Zm-2.5,0a2.627,2.627,0,1,1-2.626-2.683A2.658,2.658,0,0,1,37.62,5.421Z"/>
</svg>
