<svg xmlns="http://www.w3.org/2000/svg" xmlns:xlink="http://www.w3.org/1999/xlink" viewBox="0 0 35.22 35.27"><defs><clipPath id="a" transform="translate(0 0)"><rect width="35.22" height="35.27" style="fill:none"/></clipPath></defs><title>service15</title><g style="clip-path:url(#a)"><path d="M23.27,13c-0.9,3.12-3.35,5.4-5.68,5.51-2.34-.11-4.79-2.4-5.69-5.54l-0.44.07a0.92,0.92,0,0,1-1-.76L10,9.55a0.92,0.92,0,0,1,.76-1l0.31,0a4.5,4.5,0,0,1-.22-1.38V6A4.56,4.56,0,0,1,15.39,1.5h0.54a0.57,0.57,0,0,1,0-.24c0.28-.74,2.14-0.71,4.16.05a10.19,10.19,0,0,1,1.2.54A4.57,4.57,0,0,1,24.13,6v1a4.5,4.5,0,0,1-.22,1.38l0.31,0a0.92,0.92,0,0,1,.76,1l-0.43,2.78a0.92,0.92,0,0,1-1,.76Z" transform="translate(0 0)" style="fill:none;stroke:#d4d4d4;stroke-linecap:round;stroke-linejoin:round;stroke-width:1.440000057220459px"/><line x1="28.3" y1="31.8" x2="23.38" y2="31.8" style="fill:none;stroke:#d4d4d4;stroke-linecap:round;stroke-linejoin:round;stroke-width:1.440000057220459px"/><path d="M1.54,34.52L0.72,27.1V26.32c0-1.73,1.75-2.73,3.22-3s6.34-1.36,8-2.48l0.1,0,2.93,13.75,1.76-9.07L15.2,21.63H20l-1.49,3.84,1.71,9.07,3-13.75,0.1,0c1.62,1.12,6.63,2.21,8,2.48s3.22,1.3,3.22,3V27.1l-0.82,7.42" transform="translate(0 0)" style="fill:none;stroke:#d4d4d4;stroke-linecap:round;stroke-linejoin:round;stroke-width:1.440000057220459px"/></g></svg>