<svg xmlns="http://www.w3.org/2000/svg" xmlns:xlink="http://www.w3.org/1999/xlink" viewBox="0 0 37.11 37.11"><defs><clipPath id="a" transform="translate(0 0)"><rect width="37.11" height="37.11" style="fill:none"/></clipPath></defs><title>service18</title><g style="clip-path:url(#a)"><path d="M23.57,13.75l0,0h0c3.26,3.36,4.7,7.29,2.55,9.45-0.86.87-3.59,1.07-4.4,2-1.73,2.07-.61,7.28-3,9.52-3.69,3.48-9.33.77-13.2-3h0l0,0-0.1-.1-0.1-.1,0,0h0c-3.74-3.87-6.45-9.51-3-13.2,2.24-2.38,7.45-1.26,9.52-3,1-.81,1.18-3.53,2-4.4,2.16-2.16,6.08-.71,9.45,2.55h0l0,0,0.1,0.1Z" transform="translate(0 0)" style="fill:none;stroke:#d4d4d4;stroke-linecap:round;stroke-linejoin:round;stroke-width:1.440000057220459px"/><circle cx="16.42" cy="20.69" r="3.34" transform="translate(-9.82 17.67) rotate(-45)" style="fill:none;stroke:#d4d4d4;stroke-linecap:round;stroke-linejoin:round;stroke-width:1.440000057220459px"/><line x1="12.12" y1="29.79" x2="7.01" y2="24.68" style="fill:none;stroke:#d4d4d4;stroke-linecap:round;stroke-linejoin:round;stroke-width:1.440000057220459px"/><line x1="31.83" y1="8.33" x2="25.09" y2="15.07" style="fill:none;stroke:#d4d4d4;stroke-linecap:round;stroke-linejoin:round;stroke-width:1.440000057220459px"/><line x1="22.04" y1="12.02" x2="28.78" y2="5.29" style="fill:none;stroke:#d4d4d4;stroke-linecap:round;stroke-linejoin:round;stroke-width:1.440000057220459px"/><polyline points="28.78 5.29 31.96 1.31 35.8 5.15 31.82 8.33" style="fill:none;stroke:#d4d4d4;stroke-linecap:round;stroke-linejoin:round;stroke-width:1.440000057220459px"/><line x1="35.68" y1="5.77" x2="36.39" y2="6.49" style="fill:none;stroke:#d4d4d4;stroke-linecap:round;stroke-linejoin:round;stroke-width:1.440000057220459px"/><line x1="34.18" y1="7.23" x2="34.89" y2="7.94" style="fill:none;stroke:#d4d4d4;stroke-linecap:round;stroke-linejoin:round;stroke-width:1.440000057220459px"/><line x1="32.68" y1="8.68" x2="33.4" y2="9.39" style="fill:none;stroke:#d4d4d4;stroke-linecap:round;stroke-linejoin:round;stroke-width:1.440000057220459px"/><line x1="31.34" y1="1.43" x2="30.62" y2="0.72" style="fill:none;stroke:#d4d4d4;stroke-linecap:round;stroke-linejoin:round;stroke-width:1.440000057220459px"/><line x1="29.89" y1="2.93" x2="29.17" y2="2.22" style="fill:none;stroke:#d4d4d4;stroke-linecap:round;stroke-linejoin:round;stroke-width:1.440000057220459px"/><line x1="28.43" y1="4.43" x2="27.72" y2="3.71" style="fill:none;stroke:#d4d4d4;stroke-linecap:round;stroke-linejoin:round;stroke-width:1.440000057220459px"/></g></svg>