<svg xmlns="http://www.w3.org/2000/svg" xmlns:xlink="http://www.w3.org/1999/xlink" viewBox="0 0 34.32 30.41">
    <defs>
        <clipPath id="a" transform="translate(0 0)">
            <rect width="34.32" height="30.41" style="fill:none"/>
        </clipPath>
    </defs>
    <title>service9</title>
    <g style="clip-path:url(#a)">
        <rect x="0.72" y="0.72" width="32.88" height="28.97"
              style="fill:none;stroke:#d4d4d4;stroke-linecap:round;stroke-linejoin:round;stroke-width:1.440000057220459px"/>
        <line x1="33.6" y1="7.57" x2="0.72" y2="7.57"
              style="fill:none;stroke:#d4d4d4;stroke-linecap:round;stroke-linejoin:round;stroke-width:1.440000057220459px"/>
        <circle cx="29.46" cy="4.28" r="0.73"
                style="fill:none;stroke:#d4d4d4;stroke-linecap:round;stroke-linejoin:round;stroke-width:1.440000057220459px"/>
        <circle cx="24.77" cy="4.28" r="0.73"
                style="fill:none;stroke:#d4d4d4;stroke-linecap:round;stroke-linejoin:round;stroke-width:1.440000057220459px"/>
        <path d="M12.22,21.05l-1.89,0c-3.57.08-6.55-5.55-6.26-6l1.3-2c0.45-.68,3.23,1.78,4,1.78H24.29c1.88,0,3.37,1.52,4.55,2.93,1,1.25.81,3-1.83,3L18.66,21"
              transform="translate(0 0)"
              style="fill:none;stroke:#d4d4d4;stroke-linecap:round;stroke-linejoin:round;stroke-width:1.440000057220459px"/>
        <path d="M21.2,18.42l-1.73,1.67-3.81,3.67c-1.32,1.27-3.86,2.81-4.74,2-1.39-1.26,3.07-6.58,3.64-7.36H21.2Z"
              transform="translate(0 0)"
              style="fill:none;stroke:#d4d4d4;stroke-linecap:round;stroke-linejoin:round;stroke-width:1.440000057220459px"/>
    </g>
</svg>