<svg xmlns="http://www.w3.org/2000/svg" xmlns:xlink="http://www.w3.org/1999/xlink" width="32" height="56" viewBox="0 0 32 56">
  <defs>
    <style>
      .cls-1 {
        fill: #d4d4d4;
      }
    </style>
  </defs>
  <path id="Shape_7_copy" data-name="Shape 7 copy" class="cls-1" d="M16,49.821A10.193,10.193,0,1,1,26.126,39.628,10.171,10.171,0,0,1,16,49.821ZM16,31.71a7.918,7.918,0,1,0,7.865,7.918A7.9,7.9,0,0,0,16,31.71ZM9.652,47.14a1.126,1.126,0,0,1-.8-0.333,1.143,1.143,0,0,1,0-1.609l12.7-12.783a1.125,1.125,0,0,1,1.6,0,1.144,1.144,0,0,1,0,1.609l-12.7,12.782A1.126,1.126,0,0,1,9.652,47.14Zm17.122,8.855H5.226A5.261,5.261,0,0,1-.01,50.724V34.853c0-3.531,3.1-6.593,6.01-8.281a61.292,61.292,0,0,1,7.911-3.936c1.3-.552,2.636-1.122,4.4-1.992A5.586,5.586,0,0,0,15.966,9.981c-3.06-.1-5.169,1.407-5.565,2.866-0.961,3.548-3.577,4.8-5.749,4.464A4.945,4.945,0,0,1,.567,12.056h0A8.754,8.754,0,0,1,1.586,8.231C5.022,1.787,12.7-1.378,20.253.535A15.182,15.182,0,0,1,32.01,15.891V50.724A5.259,5.259,0,0,1,26.774,55.995ZM15.692,7.7c0.114,0,.227,0,0.342.006a7.862,7.862,0,0,1,3.27,14.98c-1.817.9-3.187,1.48-4.512,2.044A59.561,59.561,0,0,0,7.13,28.542c-2.251,1.308-4.879,3.746-4.879,6.312V50.724a2.989,2.989,0,0,0,2.976,3H26.774a2.989,2.989,0,0,0,2.976-3V15.891A12.99,12.99,0,0,0,19.7,2.74C14.346,1.388,7.015,2.861,3.576,9.306a6.491,6.491,0,0,0-.751,2.834h0a2.671,2.671,0,0,0,2.168,2.923c1.146,0.173,2.592-.471,3.227-2.815C8.956,9.541,12,7.7,15.692,7.7Zm-14,4.4h0Z"/>
</svg>
