<svg xmlns="http://www.w3.org/2000/svg" xmlns:xlink="http://www.w3.org/1999/xlink" viewBox="0 0 33.39 30.61"><defs><clipPath id="a" transform="translate(0 0)"><rect width="33.39" height="30.61" style="fill:none"/></clipPath></defs><title>service16</title><g style="clip-path:url(#a)"><path d="M22.63,10h8.93a1.11,1.11,0,0,1,1.1,1.1v8.37a1.11,1.11,0,0,1-1.1,1.1H22.63a4.7,4.7,0,0,1-4.69-4.69V14.7A4.7,4.7,0,0,1,22.63,10Z" transform="translate(0 0)" style="fill:none;stroke:#334d5e;stroke-linecap:round;stroke-linejoin:round;stroke-width:1.440000057220459px"/><circle cx="23.19" cy="15.3" r="2.21" style="fill:none;stroke:#334d5e;stroke-linecap:round;stroke-linejoin:round;stroke-width:1.440000057220459px"/><path d="M30.2,20.66V27a2.88,2.88,0,0,1-2.86,2.86H3.58A2.87,2.87,0,0,1,.72,27V3.58A2.87,2.87,0,0,1,3.58.72H27.34A2.87,2.87,0,0,1,30.2,3.58V9.86" transform="translate(0 0)" style="fill:none;stroke:#334d5e;stroke-linecap:round;stroke-linejoin:round;stroke-width:1.440000057220459px"/></g></svg>