<svg xmlns="http://www.w3.org/2000/svg" xmlns:xlink="http://www.w3.org/1999/xlink" width="60" height="60" viewBox="0 0 60 60">
  <defs>
    <style>
      .cls-1 {
      fill: #d4d4d4;
      }
    </style>
  </defs>
  <path id="Shape_14_copy" data-name="Shape 14 copy" class="cls-1" d="M30,59.988a1.218,1.218,0,0,1-1.2-1.015L25.534,39.728l-9.389,5.8a1.218,1.218,0,0,1-1.684-1.664l5.672-9.433L1.021,31.2a1.218,1.218,0,0,1,0-2.4l19.246-3.266-5.8-9.389a1.218,1.218,0,0,1,1.665-1.684l9.434,5.672L28.8,1.015a1.218,1.218,0,0,1,2.4,0l3.265,19.244,9.389-5.8a1.218,1.218,0,0,1,1.685,1.664l-5.672,9.435,19.112,3.232a1.218,1.218,0,0,1,0,2.4L39.768,34.454l5.752,8.971A1.218,1.218,0,0,1,43.9,45.144l-9.456-5.333L31.2,58.974A1.217,1.217,0,0,1,30,59.988ZM26.433,36.524a1.215,1.215,0,0,1,1.2,1.015L30,51.474l2.33-13.78a1.217,1.217,0,0,1,1.8-.858l6.7,3.778-4.1-6.4a1.218,1.218,0,0,1,.821-1.858L51.479,30,37.7,27.666a1.218,1.218,0,0,1-.841-1.829l4.009-6.667-6.66,4.111a1.217,1.217,0,0,1-1.841-.833L30,8.513l-2.33,13.781a1.218,1.218,0,0,1-1.829.842l-6.665-4.009,4.111,6.66a1.219,1.219,0,0,1-.833,1.841L8.518,29.993,22.3,32.322a1.219,1.219,0,0,1,.841,1.829l-4.007,6.665,6.659-4.111A1.22,1.22,0,0,1,26.433,36.524ZM21.905,55.686a1.237,1.237,0,0,1-.382-0.061,26.911,26.911,0,0,1-7.45-3.839,27.066,27.066,0,0,1-8.068-9.423,26.9,26.9,0,0,1-1.637-3.894,1.218,1.218,0,0,1,2.313-.764A24.45,24.45,0,0,0,8.17,41.246a24.638,24.638,0,0,0,7.343,8.574,24.433,24.433,0,0,0,6.773,3.491A1.218,1.218,0,0,1,21.905,55.686ZM5.525,23.116a1.247,1.247,0,0,1-.383-0.061,1.218,1.218,0,0,1-.774-1.538,26.994,26.994,0,0,1,6.546-10.608A27.383,27.383,0,0,1,14.074,8.2a26.962,26.962,0,0,1,7.45-3.838,1.218,1.218,0,1,1,.763,2.313,24.438,24.438,0,0,0-6.774,3.492,24.715,24.715,0,0,0-5.34,5.338A24.446,24.446,0,0,0,6.682,22.28,1.219,1.219,0,0,1,5.525,23.116Zm48.949,0a1.219,1.219,0,0,1-1.157-.836,24.581,24.581,0,0,0-15.6-15.6,1.218,1.218,0,1,1,.763-2.313A26.972,26.972,0,0,1,45.926,8.2a27.3,27.3,0,0,1,3.158,2.708,26.974,26.974,0,0,1,6.546,10.608,1.218,1.218,0,0,1-.774,1.538A1.246,1.246,0,0,1,54.474,23.116ZM38.095,55.686a1.218,1.218,0,0,1-.382-2.374,24.454,24.454,0,0,0,6.774-3.491,24.643,24.643,0,0,0,7.342-8.574,24.448,24.448,0,0,0,1.489-3.541,1.218,1.218,0,0,1,2.313.764A27.013,27.013,0,0,1,38.476,55.625,1.238,1.238,0,0,1,38.095,55.686ZM30,35.2a5.207,5.207,0,1,1,5.208-5.206A5.213,5.213,0,0,1,30,35.2Zm0-7.979a2.772,2.772,0,1,0,2.771,2.772A2.775,2.775,0,0,0,30,27.222Z"/>
</svg>
