<svg xmlns="http://www.w3.org/2000/svg" xmlns:xlink="http://www.w3.org/1999/xlink" viewBox="0 0 35.17 34.55">
    <defs>
        <clipPath id="a" transform="translate(0 0)">
            <rect width="35.17" height="34.55" style="fill:none"/>
        </clipPath>
    </defs>
    <title>service10</title>
    <g style="clip-path:url(#a)">
        <circle cx="10.43" cy="29.26" r="4.57"
                style="fill:none;stroke:#d4d4d4;stroke-linecap:round;stroke-linejoin:round;stroke-width:1.440000057220459px"/>
        <circle cx="21.95" cy="29.26" r="4.57"
                style="fill:none;stroke:#d4d4d4;stroke-linecap:round;stroke-linejoin:round;stroke-width:1.440000057220459px"/>
        <line x1="32.31" y1="33.12" x2="26.96" y2="24.03"
              style="fill:none;stroke:#d4d4d4;stroke-linecap:round;stroke-linejoin:round;stroke-width:1.440000057220459px"/>
        <path d="M3.9,26.46V3.91H16v6.2h7.22V5.52l-2.54-4.8h9.7L27.8,5.52v4.6H28a6.47,6.47,0,0,1,6.44,6.45v2.51A6.46,6.46,0,0,1,28,25.51"
              transform="translate(0 0)"
              style="fill:none;stroke:#d4d4d4;stroke-linecap:round;stroke-linejoin:round;stroke-width:1.440000057220459px"/>
        <line x1="15.96" y1="3.92" x2="0.72" y2="3.87"
              style="fill:none;stroke:#d4d4d4;stroke-linecap:round;stroke-linejoin:round;stroke-width:1.440000057220459px"/>
        <rect x="7.18" y="8.68" width="5.3" height="9.02"
              style="fill:none;stroke:#d4d4d4;stroke-linecap:round;stroke-linejoin:round;stroke-width:1.440000057220459px"/>
        <polyline points="3.49 24.68 0.84 24.68 0.78 19.98 0.72 15.27 3.37 15.27"
                  style="fill:none;stroke:#d4d4d4;stroke-linecap:round;stroke-linejoin:round;stroke-width:1.440000057220459px"/>
        <circle cx="10.43" cy="29.26" r="1.82"
                style="fill:none;stroke:#d4d4d4;stroke-linecap:round;stroke-linejoin:round;stroke-width:1.440000057220459px"/>
        <circle cx="21.95" cy="29.26" r="1.82"
                style="fill:none;stroke:#d4d4d4;stroke-linecap:round;stroke-linejoin:round;stroke-width:1.440000057220459px"/>
    </g>
</svg>